<?xml version="1.0" standalone="no"?>
<!DOCTYPE svg PUBLIC "-//W3C//DTD SVG 1.1//EN" "http://www.w3.org/Graphics/SVG/1.1/DTD/svg11.dtd" >
<svg xmlns="http://www.w3.org/2000/svg" xmlns:xlink="http://www.w3.org/1999/xlink" version="1.1">
<metadata></metadata>
<defs>
<font id="akzidgroconbqextbolitaregular" horiz-adv-x="1024" >
<font-face units-per-em="2048" ascent="1638" descent="-410" />
<missing-glyph horiz-adv-x="512" />
<glyph horiz-adv-x="0" />
<glyph unicode="&#xd;" horiz-adv-x="512" />
<glyph unicode=" "  horiz-adv-x="512" />
<glyph unicode="&#x09;" horiz-adv-x="512" />
<glyph unicode="&#xa0;" horiz-adv-x="512" />
<glyph unicode="!" horiz-adv-x="598" d="M702 1184l-223 -715h-186l100 698l68 279h303zM502 311l-72 -311h-303l72 311h303z" />
<glyph unicode="&#x22;" horiz-adv-x="811" d="M686 836l-113 512q-2 18 -3 31.5t-1 25.5t5.5 41t50.5 58.5t98 29.5q49 0 88 -24.5t44 -53.5t5 -49q0 -25 -2 -35l-108 -536h-64zM258 836l-111 512q-4 23 -4 49q0 16 5.5 47t50.5 60.5t98 29.5q113 0 125 -53.5t12 -79.5q0 -16 -2 -29l-108 -536h-66z" />
<glyph unicode="#" horiz-adv-x="1366" d="M780 0l54 381h-203l-53 -381h-254l51 381h-193v254h230l26 194h-205v254h240l51 363h256l-51 -363h203l49 363h258l-51 -363h186v-254h-223l-25 -194h201v-254h-237l-54 -381h-256zM897 829h-205l-26 -194h202z" />
<glyph unicode="$" horiz-adv-x="1067" d="M934 1659l-45 -197q55 -8 75.5 -12t86 -28.5t97.5 -89t32 -132.5q0 -55 -37 -213l-334 2q8 31 19.5 82t11.5 76q0 39 -24.5 58.5t-65.5 19.5q-53 0 -81 -28t-43.5 -83t-15.5 -98q0 -47 21.5 -69.5t50.5 -45.5l68 -53l137 -109q104 -80 134 -133t30 -117q0 -18 -3.5 -39.5 t-9.5 -67.5t-32.5 -125t-79 -149.5t-152.5 -103.5t-227 -33l-51 -211h-162l51 220q-80 14 -129 30.5t-94 52.5q-35 33 -60.5 79t-25.5 122q0 49 10 98.5t33 135.5h350q-14 -57 -26.5 -108.5t-12.5 -78.5q0 -41 22.5 -68.5t84.5 -27.5q74 0 98 41t34.5 83t14.5 62.5t4 47.5 q0 45 -30.5 72.5t-100.5 78.5l-141 105q-88 70 -114 108.5t-32 73.5t-6 71q0 25 2 42.5t11.5 67.5t41 132t56 118t42 58.5t55.5 46t110.5 35.5t148.5 12l41 189h162z" />
<glyph unicode="%" horiz-adv-x="1622" d="M1544 209q-10 -35 -21.5 -69t-40 -74.5t-95 -63t-140.5 -22.5q-47 0 -90 9t-105.5 39.5t-62.5 145.5q0 39 7.5 70.5t11.5 54.5l79 350q18 70 34 114t54.5 88t108.5 58.5t119 14.5q74 0 112.5 -11.5t63.5 -31t38 -35t21.5 -34.5t11.5 -43t3 -42q0 -23 -2 -40t-11 -56z M1354 1446l-715 -1446h-162l713 1446h164zM1198 250l-7 -31.5t-3 -23.5q0 -27 16.5 -38.5t50.5 -11.5q45 0 59.5 22.5t31.5 80.5l92 401q4 14 8 31.5t4 34.5q0 18 -14.5 34.5t-49.5 16.5q-12 0 -21 -2t-25.5 -11.5t-25.5 -30t-24 -75.5zM729 752q-10 -43 -21.5 -74t-40 -72 t-92 -62.5t-141.5 -21.5q-23 0 -51.5 3t-76.5 13.5t-89 57.5t-41 121q0 35 5 64.5t12 60.5l81 350q23 86 35.5 121t46 73.5t98 59t136.5 20.5t110.5 -11t61 -27.5t38 -34t25 -39t12.5 -44t3 -42.5t-2 -39t-11 -58zM387 793q-10 -29 -10 -39.5v-16.5q0 -27 15.5 -38t51.5 -11 q53 0 64.5 25.5t26.5 77.5l92 401q4 14 8 31.5t4 33.5q0 20 -14.5 36t-49.5 16q-14 0 -27 -5.5t-31.5 -15.5t-37.5 -98z" />
<glyph unicode="&#x26;" horiz-adv-x="1366" d="M1352 754l-23 -111q-25 -94 -61.5 -167t-69.5 -118l-78 -92l37 -26q27 -14 67 -23.5t97 -9.5l-66 -236q-35 -2 -61 -2q-35 0 -77 5.5t-73.5 12.5t-52 15t-42 19.5t-31 17.5t-46.5 37q-96 -47 -169.5 -73t-186.5 -26q-49 0 -95 6.5t-142.5 44.5t-142.5 130t-46 182 q0 86 35 165t89 135t109.5 92t135.5 79q-12 55 -20.5 112.5t-8.5 98.5v34.5t13.5 99.5t72.5 147.5t116.5 91t112 37t107.5 10.5q98 0 160.5 -25.5t97.5 -62.5t52.5 -82t17.5 -101q0 -88 -32 -144t-82 -110.5t-98 -87t-157 -94.5q29 -78 57.5 -133t92.5 -153l30 49 q37 63 52.5 128.5t23.5 127.5h285zM809 989q51 39 72.5 90t21.5 88q0 31 -16.5 53.5t-48.5 22.5q-45 0 -76 -46t-31 -128q0 -23 4 -55.5t10 -67.5q18 10 37 22.5t27 20.5zM500 539q-33 -37 -54.5 -83t-21.5 -94q0 -98 52 -115.5t72.5 -19.5t43.5 -2q63 0 127 27 q-61 86 -98 153.5t-80 172.5z" />
<glyph unicode="'" horiz-adv-x="425" d="M281 836l-113 512q-4 16 -4 47q0 18 6 49t50 60.5t97 29.5t91 -26.5t47 -75.5v-23q0 -25 -2 -37l-109 -536h-63z" />
<glyph unicode="(" horiz-adv-x="724" d="M940 1319q-70 0 -111 -4t-71.5 -26.5t-44 -54.5t-27.5 -91l-283 -1217q-6 -25 -11 -54.5t-5 -59.5q0 -12 1 -24.5t15.5 -32t48 -28t85.5 -8.5h51l-31 -131h-59q-125 0 -207 21.5t-118 77t-48 102.5t-12 94q0 63 12 136t33 153l221 956q25 88 46 139.5t74.5 100.5 t132.5 63.5t234 14.5h105z" />
<glyph unicode=")" horiz-adv-x="724" d="M-88 -283h45q47 0 80 5.5t60.5 26t43 57t27.5 88.5l281 1216q6 25 12 58.5t6 54.5q0 31 -14.5 51t-47 31.5t-96.5 11.5h-45l31 131h59q125 0 207 -21.5t119 -78t48 -98.5t11 -99q0 -63 -12 -133t-33 -156l-219 -954q-25 -90 -46 -139.5t-78.5 -103.5t-146.5 -65.5 t-323 -11.5z" />
<glyph unicode="*" horiz-adv-x="894" d="M713 1468l82 -241l241 -45l4 -25l-219 -133l35 -252l-20 -12l-205 162l-228 -111l-18 12l92 242l-170 188l6 15l258 -15l117 215h25z" />
<glyph unicode="+" horiz-adv-x="1366" d="M651 0v467h-469v260h469v465h260v-465h465v-260h-465v-467h-260z" />
<glyph unicode="," horiz-adv-x="512" d="M428 313l-74 -313l-248 -317h-131l187 317h-113l72 313h307z" />
<glyph unicode="-" horiz-adv-x="681" d="M750 840l-54 -236h-553l54 236h553z" />
<glyph unicode="." horiz-adv-x="512" d="M422 313l-72 -313h-305l72 313h305z" />
<glyph unicode="/" horiz-adv-x="598" d="M797 1446l-545 -1446h-238l539 1446h244z" />
<glyph unicode="0" horiz-adv-x="1067" d="M1008 436q-49 -217 -91.5 -283.5t-102.5 -108.5t-139 -55.5t-104.5 -14.5t-40.5 -1q-88 0 -164.5 18.5t-117.5 48.5t-51.5 42t-31 43t-27.5 69.5t-7 81.5q0 90 43 289l119 514l37 121q33 94 81 148.5t112.5 78t120.5 33.5t132 10q176 0 277.5 -76.5t101.5 -228.5 q0 -41 -7 -96t-28 -139zM451 395q-4 -18 -8.5 -39.5t-4.5 -42.5q0 -53 34 -71.5t69 -18.5q39 0 66.5 19.5t41 50.5t31.5 100l158 686l8 62q0 10 -1 23.5t-15.5 34t-38 26.5t-46.5 6q-39 0 -68.5 -19.5t-42.5 -49t-28 -97.5z" />
<glyph unicode="1" horiz-adv-x="1067" d="M1040 1446l-333 -1446h-316l244 1061q-55 -35 -98 -53.5t-140 -44.5l70 294q53 6 100 18.5t93.5 43.5t65.5 55.5t46 71.5h268z" />
<glyph unicode="2" horiz-adv-x="1067" d="M1012 260l-60 -260h-913q31 160 62.5 264.5t90 175t123 119.5t212 144.5t185.5 125t57 58t40.5 113.5t21.5 133q0 53 -24.5 75.5t-73.5 22.5q-33 0 -59.5 -12.5t-51 -67.5t-63.5 -236l-326 3q25 98 57 221t84 194.5t159.5 105.5t226.5 34q92 0 155.5 -13.5t121 -46.5 t93 -87t35.5 -150q0 -53 -19.5 -148.5t-42 -166t-59 -119t-61.5 -68t-68 -49.5l-110 -72l-150 -96q-113 -74 -141.5 -108t-35.5 -48t-17 -41h551z" />
<glyph unicode="3" horiz-adv-x="1067" d="M463 485q-10 -37 -22.5 -90t-12.5 -100l4 -31q6 -23 30.5 -42t65.5 -19q55 0 82 27.5t39.5 63.5t32.5 128t20 131q0 49 -30.5 64.5t-108.5 15.5h-98l55 244h119l39 2q31 0 61.5 11t47 47t30.5 107.5t14 108.5q0 86 -92 86q-45 0 -70.5 -17.5t-40 -47t-26.5 -80t-20 -95.5 l-318 2q29 123 53.5 202t44 108.5t45 55.5t65.5 48.5t111.5 40t174.5 17.5q63 0 128.5 -9.5t137.5 -51.5t97.5 -100.5t25.5 -115.5t-14.5 -120.5t-27.5 -110.5t-27.5 -80t-49.5 -69t-75 -47t-81 -11q16 -2 33 -6t42.5 -14.5t54 -46.5t28.5 -101q0 -37 -16.5 -119t-37 -162 t-55 -142.5t-81.5 -102t-126 -64.5t-206 -25q-68 0 -173.5 13.5t-156.5 91.5t-57 114.5t-6 81.5q0 43 9 101.5t23 109.5z" />
<glyph unicode="4" horiz-adv-x="1067" d="M1163 1446l-209 -903h136l-54 -232h-135l-72 -311h-317l74 311h-537l55 240l635 895h424zM373 551h268l86 364q12 51 34.5 132t43.5 147l-117 -182l-72 -107z" />
<glyph unicode="5" horiz-adv-x="1067" d="M1206 1446l-57 -248h-479l-90 -315l57 53q72 51 176 51q109 0 167 -51t70.5 -92t15.5 -63.5t3 -59.5q0 -51 -15.5 -147.5t-49 -219.5t-83 -203.5t-121 -113.5t-133 -47.5t-145.5 -14.5q-102 0 -189 26t-127 72t-58.5 91t-18.5 112q0 49 5 80t24 111h317q-10 -47 -18 -87 t-8 -58q0 -45 27.5 -72t74.5 -27q20 0 37.5 4t29.5 17q29 20 42.5 51t25.5 80l29 125q8 41 19 90t11 84q0 10 -1 22.5t-9 29.5t-29.5 32.5t-60.5 15.5q-59 0 -82.5 -34.5t-32.5 -71.5h-305l201 778h780z" />
<glyph unicode="6" horiz-adv-x="1067" d="M831 1026q18 59 22.5 79.5t4.5 37.5q0 39 -27.5 60.5t-70.5 21.5q-33 0 -61.5 -16.5t-46 -55.5t-52.5 -174t-43 -168q49 51 104.5 72.5t124.5 21.5q92 0 149.5 -35.5t77 -71.5t28 -76t8.5 -73q0 -51 -14.5 -128t-36 -154.5t-48 -156.5t-86 -130t-139.5 -77t-193 -26 q-70 0 -143.5 12.5t-117.5 44.5t-62.5 52t-31.5 38.5t-25.5 60.5t-12.5 102q0 51 6.5 91t32.5 159l113 489q33 129 57.5 192.5t66.5 117t134 94t233 40.5q135 0 224.5 -43t115 -82.5t34.5 -71.5t9 -75q0 -45 -10 -92t-16 -80h-308zM494 541q-10 -37 -27.5 -118t-17.5 -106 q0 -37 10 -54t31.5 -29.5t56.5 -12.5q61 0 86.5 31t43 92.5t37 146t19.5 113.5q-2 25 -8 38t-31.5 29.5t-64.5 16.5q-51 0 -81.5 -31.5t-53.5 -115.5z" />
<glyph unicode="7" horiz-adv-x="1067" d="M1251 1446l-57 -248q-96 -129 -186 -270.5t-183.5 -329.5t-150.5 -362l-68 -236h-366q53 154 103 278.5t137 285.5t204 332t221 306l-338 -4l-45 -192h-284l102 440h911z" />
<glyph unicode="8" horiz-adv-x="1067" d="M961 741q35 -25 53 -68.5t18 -99.5l-6 -65q-6 -39 -24.5 -119t-42 -147.5t-59.5 -118.5t-88 -83t-123 -48.5t-142 -16.5q-125 0 -206 28t-122 68t-65.5 93t-24.5 133q0 61 9 108.5t30 122.5q10 49 32.5 105.5t60.5 95.5t69.5 52.5t87.5 27.5q-76 29 -99.5 83t-23.5 107 l4 60q8 55 33.5 139t75 143.5t132.5 94t216 34.5q92 0 201.5 -28.5t144.5 -95t43 -103.5t8 -76q0 -43 -3 -70.5t-22.5 -103t-53.5 -127t-78 -72t-85 -26.5q6 -2 25 -12.5t25 -14.5zM637 1155q-12 -31 -29.5 -102.5t-17.5 -96.5q0 -57 37 -75.5t73 -18.5q72 0 94.5 47t38 116 t15.5 114q0 23 -8.5 41t-34 32.5t-66.5 14.5q-31 0 -57.5 -13.5t-44.5 -58.5zM504 588q-8 -29 -18.5 -66t-19.5 -71.5t-18.5 -79.5t-9.5 -62q0 -57 34 -77.5t71 -20.5q31 0 57.5 15.5t41.5 39t25.5 61.5t30 130t19.5 116q0 45 -33 64.5t-82 19.5q-29 0 -54.5 -13t-43.5 -56z " />
<glyph unicode="9" horiz-adv-x="1067" d="M457 422q-8 -29 -17.5 -66t-9.5 -55q0 -37 28.5 -57.5t69.5 -20.5q31 0 54.5 11.5t37 32t25.5 57t37 129.5l49 186q-25 -29 -33 -33q-45 -41 -98 -52t-98 -11q-96 0 -156.5 41t-77 74.5t-22.5 70.5t-6 64q0 92 43 254.5t73.5 223t79.5 105.5t135 71t189 26 q119 0 199.5 -32t125.5 -81q66 -78 66 -199q0 -41 -2 -54t-19 -99l-131 -574q-31 -125 -54 -191.5t-67 -126t-146.5 -100.5t-219.5 -41q-143 0 -233.5 44t-115 88.5t-31.5 71t-7 69.5q0 61 25 174h307zM621 1139q-10 -31 -38 -145.5t-28 -143.5q0 -53 31.5 -71.5t66.5 -18.5 q37 0 72 20.5t54.5 81t41 152.5t21.5 116q0 33 -23.5 65t-83.5 32q-35 0 -64.5 -17.5t-49.5 -70.5z" />
<glyph unicode=":" horiz-adv-x="598" d="M504 313l-72 -313h-305l72 313h305zM690 1110l-72 -313h-307l72 313h307z" />
<glyph unicode=";" horiz-adv-x="598" d="M698 1110l-71 -313h-310l72 313h309zM514 313l-72 -313l-247 -317h-134l187 317h-115l72 313h309z" />
<glyph unicode="&#x3c;" horiz-adv-x="1366" d="M96 592v254l1366 606v-285l-1001 -448l1001 -443v-282z" />
<glyph unicode="=" horiz-adv-x="1366" d="M96 252v262h1366v-262h-1366zM96 682v258h1366v-258h-1366z" />
<glyph unicode="&#x3e;" horiz-adv-x="1366" d="M96 276l1002 443l-1002 448v285l1366 -606v-254l-1366 -598v282z" />
<glyph unicode="?" horiz-adv-x="937" d="M313 473l31 135q16 66 27.5 94.5t46.5 69.5t113.5 92t144.5 94l47 35q33 27 49 58.5t27 85.5l6 49q0 74 -76 74q-37 0 -58.5 -14.5t-34.5 -44.5t-26 -85l-18 -80h-299l31 125q25 102 52 159.5t81.5 89.5t125 48.5t167.5 16.5q94 0 171.5 -19.5t117.5 -61.5t55.5 -87 t15.5 -95l-4 -65q-6 -35 -21.5 -93.5t-30 -86t-25.5 -42t-34.5 -37t-95.5 -72.5t-109.5 -75.5t-59 -42t-45 -41t-39 -71.5t-25.5 -113h-308zM584 313l-74 -313h-307l73 313h308z" />
<glyph unicode="@" horiz-adv-x="1835" d="M1255 1030h185l-68 -325q-27 -127 -41 -214.5t-14 -117.5q0 -63 39 -64q23 0 50.5 19.5t48 43t60 87t71.5 172t32 225.5q0 59 -11.5 122.5t-62.5 142.5t-153.5 127t-229.5 48q-63 0 -143 -15t-226.5 -90t-267.5 -276.5t-121 -429.5q0 -137 41 -236t123 -176t205 -121 t254 -44q115 0 255 40t249.5 123t163.5 136l94 -127q-156 -139 -325 -236.5t-431 -97.5q-152 0 -297 46t-266 145.5t-176 245t-55 304.5q0 401 272 687t672 286q86 0 193.5 -24.5t198.5 -98t153.5 -188.5t62.5 -287l-6 -100q-16 -150 -70.5 -279t-124 -197.5t-135 -108.5 t-151.5 -40q-53 0 -92.5 16.5t-58.5 44t-26.5 50l-9.5 28.5q-35 -39 -50 -53t-48 -37.5t-70 -36t-88 -12.5q-47 0 -74.5 8.5t-74.5 34t-91.5 100t-44.5 203.5q0 74 18.5 164t71 180.5t137.5 167t218 76.5q59 0 95 -13.5t63.5 -39t39 -41.5t17.5 -29zM1155 793 q-14 41 -46 68.5t-79 27.5q-37 0 -58.5 -10.5t-66.5 -48t-82 -137t-37 -195.5q0 -61 17.5 -99.5t40 -53.5t41 -20.5t33.5 -5.5q47 0 89 31t76.5 80t59 133t24.5 154q0 39 -12 76z" />
<glyph unicode="A" horiz-adv-x="1110" d="M1157 1446l-104 -1446h-344l30 322h-268l-123 -322h-375l621 1446h563zM563 569h199l65 744z" />
<glyph unicode="B" horiz-adv-x="1110" d="M791 1446q51 0 100 -1t112.5 -8t104.5 -25.5t69.5 -47.5t42 -64.5t13.5 -87.5q0 -39 -7 -85t-24.5 -115.5t-35 -105.5t-50.5 -66.5t-104 -51.5q-70 -14 -78 -16q33 -8 60.5 -17.5t71.5 -46t44 -118.5q0 -49 -12.5 -99.5t-18.5 -82.5l-18 -89q-27 -111 -55.5 -166 t-76.5 -90.5t-104.5 -49t-167.5 -13.5h-614l334 1446h414zM596 868h125q14 0 29.5 1t45 8.5t48 33t30.5 70.5l23 96q4 29 4 43q0 12 -5 31.5t-36 28t-76 8.5h-116zM453 254h151q14 0 27.5 1t49.5 13.5t58 118.5l31 123l6 45q0 45 -35.5 57.5t-64.5 12.5h-137z" />
<glyph unicode="C" horiz-adv-x="1067" d="M817 897l39 170q2 10 4 28.5t2 22.5q0 55 -35.5 71.5t-72.5 16.5q-47 0 -73 -16t-44 -70l-170 -741q-12 -47 -12 -72q0 -10 1 -19t9 -25.5t34.5 -28t55.5 -11.5q33 0 54.5 10.5t40 30t41 97t44.5 186.5h357l-50 -211q-20 -80 -28 -105.5t-52 -105.5t-156 -117t-269 -37 q-129 0 -223.5 26t-157.5 103q-23 33 -39.5 70t-16.5 90q0 61 33 201l139 610q35 125 64 193.5t91 115.5t156.5 68.5t196.5 21.5q90 0 166 -13t131.5 -43t93 -85t37.5 -151q0 -23 -4 -48.5t-8 -54.5l-43 -178h-336z" />
<glyph unicode="D" horiz-adv-x="1110" d="M895 1446q90 0 168 -15.5t111.5 -51.5t51 -79t17.5 -102q0 -41 -7 -76t-11 -59l-162 -711q-37 -158 -78 -227.5t-100.5 -91t-102.5 -27.5t-120 -6h-617l334 1446h516zM451 242h88q78 0 110.5 18.5t45 48t26.5 74.5l160 700q4 33 4 43q0 74 -101 74h-112z" />
<glyph unicode="E" horiz-adv-x="894" d="M1102 1446l-58 -248h-374l-76 -332h356l-55 -243h-356l-86 -369h409l-57 -254h-764l334 1446h727z" />
<glyph unicode="F" horiz-adv-x="854" d="M1049 1200h-379l-76 -330h364l-57 -249h-364l-144 -621h-348l334 1446h727z" />
<glyph unicode="G" horiz-adv-x="1110" d="M811 936l35 149q4 20 4 33q0 27 -7 44.5t-19.5 26.5t-27 14t-38.5 5q-25 0 -43.5 -6t-40 -19.5t-37.5 -48t-27 -77.5l-153 -666q-4 -16 -6 -33.5t-2 -31.5q0 -33 10 -53.5t37.5 -33t58.5 -12.5q39 0 62.5 15.5t41 39t27.5 60.5l43 176h-139l53 234h473l-172 -752h-334 l25 104l6 35q-23 -33 -31 -43t-41.5 -45t-92 -55.5t-134.5 -20.5q-121 0 -187.5 67t-66.5 189q0 63 14.5 141.5t69.5 309.5l109 453q27 90 55.5 147t80.5 98t137 68t206 27q115 0 189.5 -18.5t130 -54.5t87 -88t31.5 -116q0 -29 -6 -59.5t-10 -51.5l-35 -151h-336z" />
<glyph unicode="H" horiz-adv-x="1150" d="M594 858h240l135 588h352l-334 -1446h-352l141 608h-239l-142 -608h-352l334 1446h352z" />
<glyph unicode="I" horiz-adv-x="555" d="M727 1446l-334 -1446h-350l334 1446h350z" />
<glyph unicode="J" horiz-adv-x="768" d="M948 1446l-243 -1055l-21 -84q-29 -111 -70 -169t-97 -88t-120.5 -40t-146.5 -10h-215l59 260h99q16 2 35.5 3t51 12.5t53 52.5t36.5 102l227 1016h352z" />
<glyph unicode="K" horiz-adv-x="1110" d="M1354 1446l-467 -670l178 -776h-358l-138 776l-180 -776h-346l334 1446h346l-148 -639l406 639h373z" />
<glyph unicode="L" horiz-adv-x="811" d="M453 246h370l-57 -246h-721l334 1446h350z" />
<glyph unicode="M" horiz-adv-x="1579" d="M860 1446l-12 -408q0 -68 -7 -205t-7 -186l-13 -221l197 465l246 555h481l-334 -1446h-328l275 1075l-481 -1075h-295l10 1075l-221 -1075h-328l336 1446h481z" />
<glyph unicode="N" horiz-adv-x="1150" d="M1321 1446l-334 -1446h-338l-51 416l-29 239l-22 236l-176 -891h-326l334 1446h340q18 -139 34.5 -262t34.5 -293l35 -342q23 137 29 176t20.5 114.5t33 158.5t34.5 159l59 289h322z" />
<glyph unicode="O" horiz-adv-x="1110" d="M1055 352q-16 -59 -22.5 -80.5t-36 -95.5t-105.5 -127t-199 -69q-10 0 -63.5 -4.5t-79.5 -4.5q-55 0 -139 7.5t-152 51.5t-104.5 105.5t-36.5 159.5q0 47 7 94t15 86l133 559q53 205 101 275q55 76 152.5 118.5t260.5 42.5q68 0 159 -13t143.5 -48t74 -62.5t32.5 -47 t20.5 -55.5t9.5 -87q0 -76 -23.5 -181.5t-30.5 -135.5zM573 795l-106 -437l-6 -41q0 -35 25.5 -60.5t82.5 -25.5q45 0 74 24t46.5 70t40 136t48.5 201l94 393q10 41 11 65q0 12 -5.5 28.5t-10.5 27t-26.5 22.5t-58.5 12t-60.5 -9t-36.5 -27.5t-18 -34t-5 -17.5z" />
<glyph unicode="P" horiz-adv-x="1067" d="M922 1446l69 -2q100 0 153.5 -42t66 -82t15.5 -66.5t3 -36.5q0 -29 -5 -64t-10 -53l-47 -211q-47 -176 -95 -228.5t-115.5 -67.5t-161.5 -15h-267l-135 -578h-350l336 1446h543zM588 840h137q39 0 64.5 11t41 43t29.5 91l21 88l6 55q0 53 -53 66q-31 4 -37 4h-125z" />
<glyph unicode="Q" horiz-adv-x="1110" d="M774 -418l-211 2q-27 0 -62.5 1t-74.5 16q-41 10 -79 45t-38 104q0 41 28 130t34 110q-104 31 -178 93t-74 220q0 43 5 79t13 77l129 565q29 127 56.5 201.5t84 130t146.5 87.5t233 32q66 0 154 -12.5t136 -43t66.5 -49t35 -43t29 -65.5t12.5 -99q0 -57 -5.5 -90 t-35.5 -180l-115 -494q-29 -125 -55.5 -193.5t-78.5 -117.5t-114.5 -72.5t-152.5 -35.5q-14 -41 -24.5 -76t-10.5 -51q0 -27 15 -40.5t46 -17.5t72 -4h78zM469 383q-6 -23 -7 -33t-1 -28q0 -39 23.5 -62.5t84.5 -23.5q70 0 96.5 43t49.5 131l149 647q4 16 8.5 34.5t4.5 34.5 q0 25 -15.5 50.5t-41 31.5t-52.5 6q-39 0 -63.5 -15t-35 -36.5t-26.5 -85.5z" />
<glyph unicode="R" horiz-adv-x="1110" d="M799 1446q182 0 302 -27.5t120 -208.5q0 -41 -6.5 -82t-22.5 -110.5t-37.5 -114.5t-61.5 -83t-95.5 -54t-102.5 -25q72 -14 131 -44.5t59 -123.5q0 -29 -5 -58.5t-9 -45.5l-43 -219q-2 -14 -14.5 -75.5t-12.5 -84.5q0 -39 18.5 -57.5t43.5 -26.5v-12l-301 10 q-51 0 -78 22.5t-27 69.5q0 25 13 86l55 260q2 12 8 43t6 45q0 25 -11 44.5t-37.5 26.5t-55.5 7h-100l-140 -608h-352l334 1446h422zM594 862h117q16 2 33.5 4t43 12.5t42 38t28.5 74.5l19 90q2 12 4 32t2 22q0 25 -12.5 39t-34 19t-68.5 5h-96z" />
<glyph unicode="S" horiz-adv-x="1067" d="M809 987q16 61 24.5 95t8.5 61q0 37 -23.5 58.5t-68.5 21.5q-72 0 -95.5 -43t-34 -89.5t-10.5 -76.5q0 -37 14.5 -60.5t60.5 -59.5t69 -52l139 -109l57 -49q51 -45 75 -90t24 -111q0 -27 -2.5 -42t-6.5 -48t-23.5 -107.5t-58 -137t-99 -100.5t-145.5 -55.5t-190 -17.5 q-178 0 -281.5 43t-134 110t-30.5 130q0 74 43 240l350 -2q-18 -66 -29.5 -114t-11.5 -71q0 -55 35 -75.5t70 -20.5q80 0 104.5 45t36.5 94t12 82q0 29 -11 51.5t-56.5 58.5t-77.5 64l-94 70l-56 43q-70 53 -99.5 101t-29.5 130q0 51 20.5 134t43.5 129q29 78 60.5 122.5 t70.5 72.5t109.5 43t176.5 15l125 -6q137 -14 223.5 -74.5t86.5 -191.5q0 -47 -12.5 -104.5t-24.5 -106.5h-334z" />
<glyph unicode="T" horiz-adv-x="854" d="M1122 1446l-57 -250h-242l-276 -1196h-352l276 1196h-264l59 250h856z" />
<glyph unicode="U" horiz-adv-x="1110" d="M707 1446l-240 -1032q-4 -18 -7 -45t-3 -35q0 -37 23.5 -61.5t82.5 -24.5q31 0 45.5 5t36 21.5t34.5 49t28 90.5l239 1032h346l-237 -1032q-14 -51 -23.5 -85t-37 -111t-104.5 -140.5t-152.5 -77.5t-120 -19.5t-82.5 -5.5q-119 0 -199 27t-109.5 50.5t-53 47t-37 52 t-22 68.5t-8.5 75q0 88 33 235q4 27 19 70l198 846h351z" />
<glyph unicode="V" d="M565 897q0 -88 -11 -191.5t-18.5 -171t-17.5 -140t-14 -103.5l106 323l308 832h376l-606 -1446h-487l63 1446h338z" />
<glyph unicode="W" horiz-adv-x="1662" d="M1309 1446l-68 -1108l49 199l47 161l246 748h350l-530 -1446h-438l16 461q0 57 7 173t7 154l23 291q-23 -68 -42.5 -128t-48 -139t-67.5 -169t-59 -141l-211 -502h-449l129 1446h344l-69 -500q-16 -123 -32.5 -239.5t-41.5 -247.5l-29 -142l70 199l375 930h422z" />
<glyph unicode="X" d="M612 1446l60 -428l217 428h375l-422 -686l119 -760h-343l-55 545l-258 -545h-373l463 815l-129 631h346z" />
<glyph unicode="Y" horiz-adv-x="1067" d="M1341 1446l-602 -975l-108 -471h-346l114 500l-135 946h342l49 -590l295 590h391z" />
<glyph unicode="Z" horiz-adv-x="980" d="M1180 1446l-62 -266l-721 -914h510l-61 -266h-899l61 266l729 928h-487l59 252h871z" />
<glyph unicode="[" horiz-adv-x="724" d="M944 1315h-223l-381 -1606h221l-29 -127h-530l444 1864h529z" />
<glyph unicode="\" horiz-adv-x="724" d="M100 1446h262l467 -1483h-262z" />
<glyph unicode="]" horiz-adv-x="724" d="M385 -418h-528l28 127h230l370 1606h-219l31 131h528z" />
<glyph unicode="^" horiz-adv-x="1492" d="M1073 637l-225 473l-238 -473h-280l415 809h213l398 -809h-283z" />
<glyph unicode="_" d="M76 -492v261h1065v-261h-1065z" />
<glyph unicode="`" horiz-adv-x="512" d="M506 1241h-250l-289 254h344z" />
<glyph unicode="a" horiz-adv-x="980" d="M518 0l29 115l-49 -43q-49 -39 -108.5 -70t-137.5 -31q-41 0 -89 12.5t-75 44t-39 63.5t-12 81l4 53q6 33 12 68q33 141 81 199.5t125 94.5t224 77l213 63l21 92q4 25 4 37q0 25 -17.5 39t-34 16t-32.5 4q-14 0 -31.5 -1t-47.5 -16t-64 -142l-312 2q23 96 38.5 143 t60.5 110.5t156.5 83t211.5 23.5q100 0 148.5 -8t93.5 -29.5t61.5 -32t36 -35t31.5 -56t12 -78.5q0 -35 -6 -63t-12 -60l-146 -633l-6 -53q0 -29 7.5 -43.5t21.5 -26.5h-373zM649 514q-106 -35 -139 -46t-55.5 -25.5t-38 -39t-29.5 -74.5t-14 -77q0 -33 21.5 -50.5 t54.5 -17.5q35 0 60.5 12.5t72.5 53.5z" />
<glyph unicode="b" d="M592 981q49 59 103.5 101t152.5 42q25 0 49.5 -3t69.5 -23.5t76.5 -72.5t31.5 -130q0 -43 -13 -128t-65 -314l-45 -181q-35 -121 -86 -182t-118.5 -89t-135.5 -28q-49 0 -99 17.5t-74.5 52.5t-33 52.5t-12.5 25.5l-28 -121h-332l334 1446h331zM438 315q-4 -33 -4 -45 q0 -33 23 -55q27 -20 61 -20q31 0 56.5 15t38 37.5t24.5 63.5l96 428q6 27 10.5 48.5t4.5 33.5q0 41 -26 62.5t-63 21.5q-37 -4 -60.5 -18.5t-35.5 -38.5l-10 -29z" />
<glyph unicode="c" horiz-adv-x="980" d="M717 688q10 41 19 80t9 59l-4 27q-8 20 -25.5 32.5t-51.5 12.5q-35 0 -63 -13.5t-43 -46t-28 -81.5l-100 -439q-4 -20 -4 -38q0 -20 7 -40t27.5 -33t51.5 -13q29 0 49.5 9t35.5 30.5t24.5 51t23.5 95.5h330l-27 -107q-35 -125 -94 -183t-114.5 -78.5t-114 -31 t-117.5 -10.5q-66 0 -141.5 12.5t-132 50.5t-91 92t-34.5 140q0 84 55 312l47 192q31 119 56.5 164t79.5 95t139 71.5t192 21.5q61 0 122.5 -9t120 -42t98.5 -86t40 -143q0 -37 -6 -68t-21 -86h-315z" />
<glyph unicode="d" d="M1219 1446l-334 -1446h-330l35 133q-66 -80 -128.5 -116.5t-137.5 -36.5q-72 0 -129.5 31.5t-77 74.5t-22.5 69.5t-3 49.5q0 57 15.5 129t25.5 117l41 180q35 160 66.5 253t73.5 144t100.5 73.5t124.5 22.5t123 -21.5t84.5 -57t35.5 -62.5l107 463h330zM440 354 q-14 -63 -14 -88q0 -35 22.5 -57.5t61.5 -22.5q35 0 60.5 19.5t38 50.5t26.5 84l98 426l6 55q0 84 -86 84q-55 0 -79.5 -38t-38.5 -103z" />
<glyph unicode="e" d="M463 471q-23 -104 -29 -139t-6 -62q2 -25 9 -38t34 -24t51 -11q66 0 87.5 37.5t39.5 119.5h332q-25 -104 -54.5 -171.5t-92 -117t-148.5 -72t-178 -22.5q-119 0 -213 33t-128 83t-45 85t-11 94q0 72 16 151t57 248t72 239.5t81 116.5t131 74.5t204 28.5h55.5t96 -13 t155.5 -65.5t80 -187.5q0 -41 -6 -78t-25 -118l-41 -191h-524zM719 672q10 45 19.5 87t9.5 62q0 41 -24 62.5t-71 21.5q-68 0 -93 -49t-52 -184h211z" />
<glyph unicode="f" horiz-adv-x="641" d="M868 1247q-41 0 -77.5 -1t-50 -8t-18.5 -14t-11 -20.5t-14.5 -46.5t-14.5 -59h143l-47 -199h-143l-207 -899h-328l207 899h-131l45 199h133l25 106q8 35 17.5 71t37 87t105 71.5t184.5 20.5l192 -6z" />
<glyph unicode="g" d="M815 1098h330l-256 -1110l-31 -121q-35 -135 -77 -195.5t-99 -95.5t-135 -53.5t-162 -18.5l-102 7q-59 8 -110.5 22t-85.5 43t-48 45.5t-24.5 33.5t-19.5 49t-9 73q0 37 4 55t14 55h324q-10 -47 -14.5 -71.5t-4.5 -32.5q0 -33 19.5 -54.5t70.5 -21.5q27 0 52.5 11.5 t42 43t28.5 82.5l70 287q-51 -61 -108.5 -105t-157.5 -44q-41 0 -62.5 5t-73 30.5t-70 85t-18.5 120.5q0 82 13.5 146.5t55.5 230.5t64.5 238.5t64.5 137t97.5 105.5t159.5 41q66 0 115 -22.5t75.5 -60.5t36.5 -72zM442 385q-6 -33 -10 -57.5t-4 -40.5q0 -25 7 -45.5 t30.5 -31.5t44.5 -11q31 0 59.5 17t42 45t27.5 73l104 454q2 12 2 35q0 47 -32 66q-20 16 -54 16q-57 0 -82.5 -34.5t-44.5 -98.5z" />
<glyph unicode="h" d="M590 975l31 35q51 53 108 80.5t129 27.5q76 0 149.5 -43t73.5 -166q0 -29 -4 -54.5t-8 -37.5l-186 -817h-326l178 774l6 49q0 84 -86 84q-25 0 -41 -7t-28.5 -18.5t-21.5 -34t-13 -40.5l-186 -807h-326l334 1446h325z" />
<glyph unicode="i" horiz-adv-x="512" d="M641 1200h-326l58 246h325zM616 1098l-254 -1098h-323l252 1098h325z" />
<glyph unicode="j" horiz-adv-x="512" d="M698 1446l-55 -244h-324l58 244h321zM618 1098l-274 -1188q-6 -29 -10 -47.5t-26.5 -86t-71 -112.5t-107.5 -54t-111.5 -11t-214.5 -2l50 215q41 2 55 2h20q43 6 62.5 30.5t32.5 73.5l272 1180h323z" />
<glyph unicode="k" d="M524 684l340 414h367l-426 -473l188 -625h-336l-155 590l-135 -590h-326l334 1446h325z" />
<glyph unicode="l" horiz-adv-x="512" d="M700 1446l-333 -1446h-328l334 1446h327z" />
<glyph unicode="m" horiz-adv-x="1579" d="M1436 0h-332l180 780l4 56q-6 35 -29.5 52t-56.5 17q-31 0 -54.5 -14t-36.5 -41t-26 -70l-180 -780h-334l183 791q4 23 4 38q0 20 -5 36t-21.5 28t-30 15t-27.5 3q-31 0 -57.5 -15t-41 -40t-24.5 -65l-182 -791h-328l252 1098h330l-29 -127q16 27 47 56.5t98.5 62 t151.5 32.5q74 0 122 -29.5t63.5 -57t19.5 -64.5q8 10 21 26.5t46 44t106.5 55t147.5 27.5q98 0 161.5 -46t63.5 -142q0 -27 -12 -94z" />
<glyph unicode="n" d="M555 0l178 772l4 53q0 31 -20.5 53.5t-54.5 22.5q-31 0 -57.5 -17.5t-43 -46t-22.5 -67.5l-179 -770h-319l252 1098h321l-24 -109l47 45q35 27 102.5 57.5t141.5 30.5t138 -40t64 -156q0 -31 -3 -56.5t-9 -52.5l-188 -817h-328z" />
<glyph unicode="o" d="M1016 993q20 -29 33.5 -77t13.5 -91q0 -41 -9.5 -94t-21.5 -106l-31 -152q-27 -119 -51 -197.5t-45.5 -118.5t-39 -58.5t-43 -43t-105.5 -52.5t-205 -28q-109 0 -179.5 19.5t-108.5 46.5t-54 44t-28.5 38.5t-21.5 58.5t-9 90q0 57 10 117q14 63 22 107l41 180 q29 123 60.5 207t81 132t101.5 71.5t100 30.5t59.5 8t52.5 1q150 0 242 -35t135 -98zM438 342q-10 -41 -10 -61q0 -43 25.5 -64.5t64.5 -21.5q35 0 64.5 21.5t56.5 125.5l100 440l6 45q0 37 -25.5 58.5t-64.5 21.5q-33 0 -54 -13t-33.5 -33.5t-28.5 -78.5z" />
<glyph unicode="p" d="M276 -395h-327l344 1493h330l-37 -140l30 39q41 49 99.5 86t152.5 37q102 0 162 -59.5t60 -161.5q0 -35 -6.5 -70.5t-10.5 -58.5l-106 -463l-25 -82q-29 -90 -73 -150.5t-88 -73.5t-80.5 -20.5t-55.5 -7.5q-74 0 -146.5 34t-95.5 140zM451 358q-4 -33 -7.5 -55t-3.5 -24 q0 -86 86 -86q23 0 33 4t25.5 12t28 31.5t26.5 66.5l98 428q4 23 10.5 49.5t6.5 44.5q0 49 -28 66.5t-58 17.5q-57 0 -79 -29.5t-34 -72.5z" />
<glyph unicode="q" d="M807 1098h328l-347 -1501h-327l119 514q-63 -76 -120 -106t-134 -30q-86 0 -140.5 34t-72 69t-20.5 59.5t-3 52.5q0 84 41 271l55 239q49 205 117 314.5t236 109.5q111 0 165 -45t74 -110zM723 733q14 66 14 92q0 49 -29.5 66.5t-60.5 17.5q-53 0 -78.5 -39t-56.5 -155.5 t-38 -144t-25.5 -112.5t-24.5 -123t-6 -63q0 -47 28.5 -66.5t55.5 -19.5q61 0 85.5 40t43.5 112z" />
<glyph unicode="r" horiz-adv-x="681" d="M815 811h-32.5t-43.5 2q-33 0 -85 -7t-92 -63.5t-75 -207.5l-122 -535h-324l254 1098h323l-51 -219q37 72 73 116.5t82 68t88 35t87 17.5z" />
<glyph unicode="s" horiz-adv-x="937" d="M678 758q2 8 10 42t8 42q0 27 -18.5 46t-63.5 19q-31 0 -64.5 -19.5t-33.5 -86.5q0 -41 21.5 -58.5t83.5 -60.5l149 -107q66 -47 99.5 -94t33.5 -116q0 -66 -23.5 -138.5t-64.5 -123t-132 -88.5t-224 -38q-111 0 -177.5 16.5t-101.5 39t-52 38t-33.5 36t-28 57.5 t-11.5 76q0 33 4 54t21 81h315q-10 -35 -16 -59.5t-6 -49.5q0 -31 21.5 -50t60.5 -19q27 0 54.5 11t38.5 50t11 64q0 37 -14.5 55t-75.5 63l-107 78q-82 57 -127 109.5t-45 130.5l7 61q12 53 25.5 96t53 89.5t128 82t219.5 35.5q115 0 203.5 -28.5t138.5 -96.5 q16 -27 27.5 -56.5t11.5 -72.5q0 -37 -17 -110h-309z" />
<glyph unicode="t" horiz-adv-x="641" d="M745 1446l-81 -348h143l-45 -199h-144l-133 -569q-4 -16 -6 -29.5t-2 -34.5q0 -39 25.5 -48t75.5 -9h32l-49 -209q-33 0 -100.5 2t-102.5 2q-31 2 -65.5 4t-100 26.5t-65.5 129.5q0 29 5 54.5t11 51.5l154 629h-133l45 199h135l80 348h321z" />
<glyph unicode="u" d="M453 381q-18 -78 -19 -105q0 -45 25.5 -62t52.5 -17q33 0 57.5 19.5t40 53t31.5 103.5l168 725h330l-254 -1098h-330l27 113q-74 -74 -137.5 -103.5t-143.5 -29.5q-78 0 -145.5 38.5t-67.5 159.5q0 31 2 50.5t12 72.5l185 797h329z" />
<glyph unicode="v" horiz-adv-x="894" d="M758 1098h342l-492 -1098h-440l25 1098l317 -2l-35 -465l-24 -293l-19 -160q18 61 54 176t53 162l96 262z" />
<glyph unicode="w" horiz-adv-x="1492" d="M512 1096l-14 -283l-9 -207l-30 -348l80 254l211 586l370 -2l-18 -355l-12 -223l-25 -260l39 139l37 115l219 586h340l-496 -1098h-352q0 115 2 231.5t4 233.5l21 354l-52 -155q-20 -61 -48.5 -133t-45.5 -113l-162 -418h-360l-14 1098z" />
<glyph unicode="x" horiz-adv-x="937" d="M539 1098l61 -299l172 299h340l-371 -551l148 -547h-320l-69 319l-191 -319h-358l411 586l-147 512h324z" />
<glyph unicode="y" horiz-adv-x="894" d="M430 133q18 88 22.5 103.5t36.5 109.5l256 752h355l-445 -1016q-29 -61 -48 -103t-70.5 -136.5t-108.5 -145.5t-127 -70.5t-144.5 -22.5t-275.5 -3l45 241h125q63 6 84 30t24 47.5t3 68.5l33 1110h325z" />
<glyph unicode="z" horiz-adv-x="854" d="M997 1098l-47 -201l-542 -676h421l-51 -221h-815l47 211l553 680h-370l47 207h757z" />
<glyph unicode="{" horiz-adv-x="724" d="M326 1100l2 110q0 104 33.5 175t111.5 106t156 38t192 3v-16l-71 -19q-41 -12 -80 -44t-55.5 -88t-16.5 -161v-33v-194v-68q0 -131 -8 -188t-40 -104.5t-70 -69t-97 -37.5q51 -14 85 -31.5t73 -61.5t49 -112.5t10 -238.5v-220v-61q0 -51 5 -90t35 -86t66.5 -65.5 t114.5 -41.5v-14h-92q-100 0 -172 12.5t-132 59.5t-78.5 116.5t-18.5 173.5v44v258v73q0 63 -10.5 110.5t-30 74t-34.5 43t-40 32t-47 19.5v14q27 6 38 11.5t52 32t55.5 100t14.5 186.5v252z" />
<glyph unicode="|" horiz-adv-x="468" d="M201 -512v2044h260v-2044h-260z" />
<glyph unicode="}" horiz-adv-x="724" d="M592 -188q0 -104 -36 -177t-108.5 -105t-139 -37t-212.5 -5v14q74 16 111 32.5t71.5 66t37.5 102.5t3 145v195q0 137 4.5 218t42 136.5t74.5 76t95 34.5q-55 14 -86 31.5t-71 62.5t-50.5 112.5t-10.5 237.5v222v30q0 88 -6 131t-37.5 85t-70.5 59.5t-107 36.5v16l94 -2 q98 0 170 -13.5t135.5 -61.5t80 -128t16.5 -201v-260v-73q0 -86 11 -125t28.5 -63.5t32 -39t36 -28t52.5 -21.5v-16q-37 -6 -84 -37t-61.5 -104.5t-14.5 -188.5v-358z" />
<glyph unicode="~" horiz-adv-x="1492" d="M782 502q-70 33 -89 40t-60 7q-37 0 -70 -14.5t-61.5 -42t-81.5 -89.5l-113 213q57 78 127 135.5t193 57.5q55 0 92 -13.5t119 -47.5l75 -35q35 -18 80 -31.5t76 -13.5q55 0 104.5 34.5t98.5 90.5l106 -215q-74 -80 -155.5 -125t-163.5 -45q-45 0 -81 9t-134 54z" />
<glyph unicode="&#xa1;" horiz-adv-x="598" d="M678 1446l-72 -313h-305l74 313h303zM512 975l-104 -696l-64 -279h-303l59 260l224 715h188z" />
<glyph unicode="&#xa2;" horiz-adv-x="512" d="M580 1542h-250l-289 254h346z" />
<glyph unicode="&#xa3;" horiz-adv-x="1323" d="M977 958q12 53 24.5 102.5t12.5 76.5q0 98 -105 98q-59 0 -86.5 -35t-47 -107.5t-19.5 -162.5q0 -43 5 -79t17 -99h408l-27 -117h-360q6 -39 11 -79t5 -58q0 -51 -10 -90t-45 -125q14 -8 37.5 -19.5t50.5 -11.5q33 0 59.5 16.5t43 58.5t42.5 156h318 q-39 -178 -60.5 -250.5t-64.5 -140t-112.5 -92.5t-137.5 -25q-104 0 -164.5 36t-124.5 95l-51 -47q-43 -35 -106.5 -60.5t-155.5 -25.5q-37 0 -63.5 3.5t-86 25t-103.5 81.5t-44 140q0 37 6 63.5t28.5 71.5t86 91.5t168.5 46.5q84 0 130 -19.5t101 -56.5v24q0 53 -5 86 t-32 105h-317l26 117h254q-16 70 -29.5 139.5t-13.5 126.5q0 53 15.5 161.5t95.5 175t172 92.5t199 26q33 0 68.5 -3.5t107 -17.5t151.5 -69.5t80 -192.5q0 -70 -41 -232h-311zM487 272q-33 29 -64.5 48.5t-80.5 19.5q-33 0 -61 -12q-55 -31 -56 -95q0 -47 36 -72.5 t85 -25.5q61 0 98 30t74 73z" />
<glyph unicode="&#xa4;" horiz-adv-x="1366" d="M1450 215l-199 -195l-166 168q-59 -35 -131.5 -60.5t-175.5 -25.5q-104 0 -178 27t-131 64l-166 -168l-194 194l167 168l-36 59q-23 47 -37.5 114t-14.5 132q0 106 25 179t61 133l-163 163l194 195l164 -164l55 33q45 20 109.5 37.5t146.5 17.5q106 0 175 -23.5 t135 -64.5l163 166l197 -197l-166 -163l31 -56q33 -70 44 -135t11 -121q0 -104 -23.5 -172.5t-64.5 -136.5zM1083 840q-39 88 -122.5 141t-180.5 53q-31 0 -51 -3t-93 -28.5t-132.5 -111.5t-59.5 -197q0 -37 3.5 -62.5t32 -94t115.5 -125t187 -56.5q49 0 80 8.5t91.5 38 t110.5 110.5t50 183q0 33 -6.5 68t-24.5 76z" />
<glyph unicode="&#xa5;" horiz-adv-x="512" d="M412 1671l137 127h248l-271 -256h-258l-147 256h215z" />
<glyph unicode="&#xa6;" horiz-adv-x="468" d="M461 389v-780h-260v780h260zM201 1411h260v-780h-260v780z" />
<glyph unicode="&#xa7;" horiz-adv-x="937" d="M907 1137q-78 72 -130 95t-103 23q-16 0 -48 -4t-32 -53q0 -18 12 -33.5t74.5 -61.5t153 -115.5t119 -129t28.5 -119.5q0 -45 -20.5 -102t-57.5 -93t-56.5 -49.5t-55.5 -35.5q31 -39 54 -79t23 -110q0 -88 -47 -153q-59 -92 -155.5 -117t-176.5 -25q-86 0 -182 27 t-151.5 77t-70.5 66.5t-42 51.5l160 165l47 -47q61 -61 115.5 -86.5t101.5 -25.5q43 0 65.5 17.5t22.5 41.5q0 25 -12.5 38t-39 35.5t-80.5 62.5t-108.5 84t-95.5 104.5t-41 144.5q0 29 3 50.5t20.5 65.5t51.5 76.5t114 71.5q-33 31 -60.5 76t-27.5 113q0 27 7 60.5t39.5 90 t125 97.5t202.5 41q94 0 174 -25t122 -54.5t60.5 -46t49.5 -47.5zM408 817q0 -16 3 -28.5t17 -31t52 -47t89 -69.5l129 -96q23 20 40.5 40.5t17.5 55.5q0 33 -17.5 56.5t-55.5 52t-75 55.5l-149 110q-25 -20 -38 -44.5t-13 -53.5z" />
<glyph unicode="&#xa8;" horiz-adv-x="512" d="M750 1493l-58 -256h-289l60 256h287zM238 1237h-285l59 256h285z" />
<glyph unicode="&#xa9;" horiz-adv-x="1705" d="M1507 250q-125 -147 -279.5 -201.5t-277.5 -54.5q-250 0 -401.5 116.5t-239.5 260t-88 354.5q0 162 49 274.5t125 200.5t216.5 170t340.5 82q176 0 328 -74.5t241 -193.5t123.5 -231.5t34.5 -233.5q0 -104 -34 -225t-138 -244zM1485 1120q-74 100 -205 183t-328 83 q-88 0 -187 -24.5t-201.5 -99t-189.5 -208.5t-87 -331q0 -131 62.5 -284.5t231.5 -266.5t371 -113q43 0 98.5 7.5t189.5 54.5t254 218t120 382q0 90 -24.5 190t-104.5 209zM1188 891q-39 39 -92.5 69.5t-132.5 30.5q-35 0 -59.5 -3t-76 -27.5t-85 -92t-33.5 -143.5 q0 -121 69.5 -192.5t190.5 -71.5q78 0 130 28.5t89 65.5l180 -166q-164 -172 -401 -172q-59 0 -106.5 6t-151 49t-179 171t-75.5 282q0 68 13 122t30 99q49 109 161.5 200t307.5 91q147 0 239 -51t162 -123z" />
<glyph unicode="&#xab;" horiz-adv-x="894" d="M897 690l-166 -117l113 -116l-62 -260l-266 260l59 260l392 270zM489 692l-170 -117l115 -118l-59 -256l-269 256l62 262l389 268z" />
<glyph unicode="&#xac;" horiz-adv-x="1366" d="M96 465v260h1366v-725h-262v465h-1104z" />
<glyph unicode="&#xad;" horiz-adv-x="681" d="M750 840l-54 -236h-553l54 236h553z" />
<glyph unicode="&#xae;" horiz-adv-x="1705" d="M1092 264q-20 45 -35 123t-23 128t-15 74.5t-28.5 42t-45 20.5t-73.5 3h-38v-393h-226v938h336l82 -2q102 0 158.5 -24.5t100.5 -82t44 -143.5q0 -98 -44 -139t-118 -80l31 -20q37 -29 47 -58.5t25 -87.5q4 -39 18.5 -126t61.5 -175zM934 834q78 0 108.5 7t47 35.5 t16.5 59.5q-2 10 -4 22.5t-13.5 32t-46 28.5t-65.5 9h-143v-194h100zM1507 250q-125 -147 -279.5 -201.5t-277.5 -54.5q-250 0 -401.5 116.5t-239.5 260t-88 354.5q0 162 49 274.5t125 200.5t216.5 170t340.5 82q176 0 328 -74.5t241 -193.5t123.5 -231.5t34.5 -233.5 q0 -104 -34 -225t-138 -244zM1485 1120q-74 100 -205 183t-328 83q-88 0 -187 -24.5t-201.5 -99t-189.5 -208.5t-87 -331q0 -131 62.5 -284.5t231.5 -266.5t371 -113q43 0 98.5 7.5t189.5 54.5t254 218t120 382q0 90 -24.5 190t-104.5 209z" />
<glyph unicode="&#xb0;" horiz-adv-x="724" d="M606 1495q94 -41 149.5 -129t55.5 -192q0 -49 -8 -84t-36 -95.5t-116 -118t-192 -57.5q-70 0 -124 21.5t-141.5 95.5t-87.5 238q0 147 102.5 249.5t250.5 102.5q33 0 68.5 -6.5t78.5 -24.5zM346 1178q0 -49 33 -82t82 -33q47 0 80.5 33.5t33.5 81.5q0 47 -34.5 79.5 t-81.5 32.5t-80 -32.5t-33 -79.5z" />
<glyph unicode="&#xb1;" horiz-adv-x="1366" d="M651 332v428h-469v260h469v426h260v-426h465v-260h-465v-428h-260zM182 0v260h1194v-260h-1194z" />
<glyph unicode="&#xb4;" horiz-adv-x="512" d="M692 1495l-282 -256h-248l190 256h340z" />
<glyph unicode="&#xb5;" horiz-adv-x="1150" d="M1194 299q12 -35 21.5 -69.5t9.5 -79.5q0 -43 -11.5 -82t-42 -58.5t-50 -26t-44.5 -6.5q-14 0 -31.5 3.5t-48 15.5t-59.5 49t-41 86q-66 -94 -148.5 -128t-156.5 -34q-70 0 -123 25.5t-96 75.5q-2 -33 -2 -54q0 -63 10 -119.5t35.5 -108.5t69.5 -123t44 -105 q0 -20 -10 -42t-31.5 -38.5t-60.5 -16.5q-29 0 -53.5 10.5t-48.5 34.5q-86 98 -86 396q0 82 6 184t18 172q-18 90 -31.5 244.5t-13.5 263.5q0 59 8.5 95t40 68t72.5 32q47 0 72.5 -34t32 -58.5t6.5 -67.5q0 -45 -18.5 -204t-45.5 -351q35 -82 84 -118t100 -36 q23 0 52.5 10.5t80 53.5t79 153.5t28.5 300.5q0 25 -1 52.5t-1 58.5q0 84 7 125t22.5 67.5t41 37t46.5 10.5q16 0 34.5 -5.5t55.5 -35t37 -172.5q0 -82 -10.5 -183.5t-31 -183.5t-61.5 -162q12 -51 38 -74.5t56 -23.5q45 0 63.5 38t18.5 87l-4 47z" />
<glyph unicode="&#xb6;" horiz-adv-x="1366" d="M1239 1286h-74v-1628h-172v1628h-239v-1628h-174v940q-51 14 -76 23.5t-88.5 49.5t-107.5 135t-44 200q0 178 86 278t157 125t123 31t97 6h512v-160z" />
<glyph unicode="&#xb8;" horiz-adv-x="512" d="M98 -115q41 -4 69 -13t53.5 -39t25.5 -85q0 -53 -29 -95t-80 -70.5t-137 -28.5q-59 0 -100 15t-84 38v92q78 -31 118 -31q53 0 79 31t26 63q0 25 -13.5 42.5t-32 24.5t-40.5 7q-29 -4 -33 -4l-10 53l119 115h168z" />
<glyph unicode="&#xbb;" horiz-adv-x="894" d="M526 729l-61 -262l-389 -268l67 293l168 122l-112 115l61 262zM934 729l-62 -262l-387 -266l68 293l170 116l-117 119l62 256z" />
<glyph unicode="&#xbf;" horiz-adv-x="937" d="M846 975l-31 -135q-16 -66 -27.5 -94.5t-46 -69.5t-114.5 -93.5t-144 -93.5l-47 -34q-33 -27 -49 -58.5t-27 -85.5l-6 -49q0 -74 76 -74q37 0 58.5 14.5t35 44t25.5 85.5l18 80h299l-30 -125q-25 -102 -52.5 -159.5t-82 -89.5t-125 -48.5t-166.5 -16.5q-94 0 -172 19.5 t-118 61.5t-55.5 87t-15.5 92v27.5t6 48.5t23.5 93.5t27 79t23.5 39t37.5 43t93.5 69.5t109 73.5t60.5 43t45 41t38.5 71.5t26 113h307zM575 1135l74 313h307l-73 -313h-308z" />
<glyph unicode="&#xc0;" horiz-adv-x="1110" d="M1157 1446l-104 -1446h-344l30 322h-268l-123 -322h-375l621 1446h563zM563 569h199l65 744zM1049 1542h-250l-289 254h346z" />
<glyph unicode="&#xc1;" horiz-adv-x="1110" d="M1157 1446l-104 -1446h-344l30 322h-268l-123 -322h-375l621 1446h563zM563 569h199l65 744zM1237 1798l-281 -254h-249l190 254h340z" />
<glyph unicode="&#xc2;" horiz-adv-x="1110" d="M1157 1446l-104 -1446h-344l30 322h-268l-123 -322h-375l621 1446h563zM563 569h199l65 744zM1200 1542h-215l-76 127l-135 -127h-252l273 256h260z" />
<glyph unicode="&#xc3;" horiz-adv-x="1110" d="M1157 1446l-104 -1446h-344l30 322h-268l-123 -322h-375l621 1446h563zM563 569h199l65 744zM1233 1796q-8 -47 -12 -66.5t-21.5 -58.5t-62.5 -79t-125 -40q-39 0 -68 7.5t-67.5 22.5t-75.5 28.5t-64 13.5q-16 0 -33.5 -6t-33.5 -27l-13 -26h-94q12 80 30.5 128 t55.5 71.5t72 31.5t57 8q29 0 54.5 -5t67.5 -21.5t80 -29.5t71 -13q41 0 59 17t31 44h92z" />
<glyph unicode="&#xc4;" horiz-adv-x="1110" d="M1155 1446l-102 -1446h-344l30 322h-266l-125 -322h-375l621 1446h561zM565 569h197l65 742zM1317 1794l-62 -256h-284l59 256h287zM803 1538h-285l60 256h284z" />
<glyph unicode="&#xc5;" horiz-adv-x="1110" d="M997 1825q61 -16 99.5 -60.5t38.5 -107.5q0 -16 -5.5 -42t-27 -58.5t-73.5 -54t-105 -21.5q-59 0 -110.5 22.5t-79 64.5t-27.5 91q0 63 46 119.5t148 56.5q18 0 38.5 -1t57.5 -9zM1155 1446l-100 -1446h-346l30 322h-266l-125 -322h-375l621 1446h561zM563 569h199 l65 746zM920 1561q41 0 68.5 27.5t27.5 68.5t-29 69.5t-69 28.5q-39 0 -68 -28.5t-29 -69.5t22.5 -63.5t41.5 -27.5t35 -5z" />
<glyph unicode="&#xc6;" horiz-adv-x="1622" d="M1829 1446l-60 -248h-372l-78 -336h352l-57 -248h-352l-84 -364h409l-57 -250h-758l94 401h-280l-211 -401h-395l837 1446h1012zM721 649h203l149 641z" />
<glyph unicode="&#xc7;" horiz-adv-x="1067" d="M817 897l39 170q2 10 4 28.5t2 22.5q0 55 -35.5 71.5t-72.5 16.5q-47 0 -73 -16t-44 -70l-170 -741q-12 -47 -12 -72q0 -10 1 -19t9 -25.5t34.5 -28t55.5 -11.5q33 0 54.5 10.5t40 30t41 97t44.5 186.5h357l-50 -211q-20 -80 -28 -105.5t-52 -105.5t-156 -117t-269 -37 q-129 0 -223.5 26t-157.5 103q-23 33 -39.5 70t-16.5 90q0 61 33 201l139 610q35 125 64 193.5t91 115.5t156.5 68.5t196.5 21.5q90 0 166 -13t131.5 -43t93 -85t37.5 -151q0 -23 -4 -48.5t-8 -54.5l-43 -178h-336zM514 -115q41 -4 68.5 -13t53.5 -39t26 -85q0 -53 -29 -95 t-80 -70.5t-137 -28.5q-59 0 -100.5 15t-84.5 38v92q78 -31 119 -31q55 0 81 31t26 63q-2 10 -3 19.5t-13.5 25t-31 22.5t-40.5 7q-29 -4 -33 -4l-10 53l118 115h168z" />
<glyph unicode="&#xc8;" horiz-adv-x="894" d="M1102 1446l-58 -248h-374l-76 -332h356l-55 -243h-356l-86 -369h409l-57 -254h-764l334 1446h727zM930 1542h-248l-289 254h346z" />
<glyph unicode="&#xc9;" horiz-adv-x="894" d="M1102 1446l-58 -248h-374l-76 -332h356l-55 -243h-356l-86 -369h409l-57 -254h-764l334 1446h727zM1120 1798l-280 -254h-250l190 254h340z" />
<glyph unicode="&#xca;" horiz-adv-x="894" d="M1102 1446l-58 -248h-374l-76 -332h356l-55 -243h-356l-86 -369h409l-57 -254h-764l334 1446h727zM1083 1542h-215l-77 127l-134 -127h-251l272 256h260z" />
<glyph unicode="&#xcb;" horiz-adv-x="894" d="M1102 1446l-58 -248h-374l-76 -332h356l-55 -243h-356l-86 -369h409l-57 -254h-764l334 1446h727zM1178 1794l-62 -256h-285l60 256h287zM664 1538h-285l59 256h285z" />
<glyph unicode="&#xcc;" horiz-adv-x="555" d="M727 1446l-334 -1446h-350l334 1446h350zM750 1542h-250l-287 254h344z" />
<glyph unicode="&#xcd;" horiz-adv-x="555" d="M727 1446l-334 -1446h-350l334 1446h350zM940 1798l-283 -254h-249l192 254h340z" />
<glyph unicode="&#xce;" horiz-adv-x="555" d="M727 1446l-334 -1446h-350l334 1446h350zM901 1542h-215l-76 127l-135 -127h-250l271 256h260z" />
<glyph unicode="&#xcf;" horiz-adv-x="555" d="M727 1446l-334 -1446h-350l334 1446h350zM995 1794l-59 -256h-287l60 256h286zM483 1538h-284l57 256h285z" />
<glyph unicode="&#xd1;" horiz-adv-x="1150" d="M1321 1446l-334 -1446h-338l-51 416l-29 239l-22 236l-176 -891h-326l334 1446h340q18 -139 34.5 -262t34.5 -293l35 -342q23 137 29 176t20.5 114.5t33 158.5t34.5 159l59 289h322zM1233 1796q-8 -47 -12 -66.5t-21.5 -58.5t-62.5 -79t-125 -40q-39 0 -68 7.5 t-67.5 22.5t-75.5 28.5t-64 13.5q-16 0 -33.5 -6t-33.5 -27l-13 -26h-94q12 80 30.5 128t55.5 71.5t72 31.5t57 8q29 0 54.5 -5t67.5 -21.5t80 -29.5t71 -13q41 0 59 17t31 44h92z" />
<glyph unicode="&#xd2;" horiz-adv-x="1110" d="M1055 352q-16 -59 -22.5 -80.5t-36 -95.5t-105.5 -127t-199 -69q-10 0 -63.5 -4.5t-79.5 -4.5q-55 0 -139 7.5t-152 51.5t-104.5 105.5t-36.5 159.5q0 47 7 94t15 86l133 559q53 205 101 275q55 76 152.5 118.5t260.5 42.5q68 0 159 -13t143.5 -48t74 -62.5t32.5 -47 t20.5 -55.5t9.5 -87q0 -76 -23.5 -181.5t-30.5 -135.5zM573 795l-106 -437l-6 -41q0 -35 25.5 -60.5t82.5 -25.5q45 0 74 24t46.5 70t40 136t48.5 201l94 393q10 41 11 65q0 12 -5.5 28.5t-10.5 27t-26.5 22.5t-58.5 12t-60.5 -9t-36.5 -27.5t-18 -34t-5 -17.5zM1026 1542 h-250l-287 254h347z" />
<glyph unicode="&#xd3;" horiz-adv-x="1110" d="M1055 352q-16 -59 -22.5 -80.5t-36 -95.5t-105.5 -127t-199 -69q-10 0 -63.5 -4.5t-79.5 -4.5q-55 0 -139 7.5t-152 51.5t-104.5 105.5t-36.5 159.5q0 47 7 94t15 86l133 559q53 205 101 275q55 76 152.5 118.5t260.5 42.5q68 0 159 -13t143.5 -48t74 -62.5t32.5 -47 t20.5 -55.5t9.5 -87q0 -76 -23.5 -181.5t-30.5 -135.5zM573 795l-106 -437l-6 -41q0 -35 25.5 -60.5t82.5 -25.5q45 0 74 24t46.5 70t40 136t48.5 201l94 393q10 41 11 65q0 12 -5.5 28.5t-10.5 27t-26.5 22.5t-58.5 12t-60.5 -9t-36.5 -27.5t-18 -34t-5 -17.5zM1227 1798 l-281 -254h-250l191 254h340z" />
<glyph unicode="&#xd4;" horiz-adv-x="1110" d="M1055 352q-16 -59 -22.5 -80.5t-36 -95.5t-105.5 -127t-199 -69q-10 0 -63.5 -4.5t-79.5 -4.5q-55 0 -139 7.5t-152 51.5t-104.5 105.5t-36.5 159.5q0 47 7 94t15 86l133 559q53 205 101 275q55 76 152.5 118.5t260.5 42.5q68 0 159 -13t143.5 -48t74 -62.5t32.5 -47 t20.5 -55.5t9.5 -87q0 -76 -23.5 -181.5t-30.5 -135.5zM573 795l-106 -437l-6 -41q0 -35 25.5 -60.5t82.5 -25.5q45 0 74 24t46.5 70t40 136t48.5 201l94 393q10 41 11 65q0 12 -5.5 28.5t-10.5 27t-26.5 22.5t-58.5 12t-60.5 -9t-36.5 -27.5t-18 -34t-5 -17.5zM1190 1542 h-215l-76 127l-135 -127h-252l272 256h260z" />
<glyph unicode="&#xd5;" horiz-adv-x="1110" d="M1055 352q-16 -59 -22.5 -80.5t-36 -95.5t-105.5 -127t-199 -69q-10 0 -63.5 -4.5t-79.5 -4.5q-55 0 -139 7.5t-152 51.5t-104.5 105.5t-36.5 159.5q0 47 7 94t15 86l133 559q53 205 101 275q55 76 152.5 118.5t260.5 42.5q68 0 159 -13t143.5 -48t74 -62.5t32.5 -47 t20.5 -55.5t9.5 -87q0 -76 -23.5 -181.5t-30.5 -135.5zM573 795l-106 -437l-6 -41q0 -35 25.5 -60.5t82.5 -25.5q45 0 74 24t46.5 70t40 136t48.5 201l94 393q10 41 11 65q0 12 -5.5 28.5t-10.5 27t-26.5 22.5t-58.5 12t-60.5 -9t-36.5 -27.5t-18 -34t-5 -17.5zM1223 1796 q-8 -49 -12.5 -68.5t-26 -65.5t-69.5 -78t-114 -32q-39 0 -67.5 7.5t-67.5 22.5t-75.5 28.5t-63.5 13.5q-16 0 -33.5 -6t-34.5 -27l-12 -26h-94q12 80 30.5 128t56.5 71.5t70.5 31.5t57.5 8q29 0 54.5 -5t67.5 -21.5t80 -29.5t70 -13q41 0 59.5 17t30.5 44h93z" />
<glyph unicode="&#xd6;" horiz-adv-x="1110" d="M1298 1794l-59 -256h-287l60 256h286zM784 1538h-284l59 256h285zM1055 352q-16 -59 -22.5 -80.5t-36 -95.5t-105.5 -127t-199 -69q-10 0 -63.5 -4.5t-79.5 -4.5q-55 0 -139 7.5t-152 51.5t-104.5 105.5t-36.5 159.5q0 47 7 94t15 86l133 559q53 205 101 275 q55 76 152.5 118.5t260.5 42.5q68 0 159 -13t143.5 -48t74 -62.5t32.5 -47t20.5 -55.5t9.5 -87q0 -76 -23.5 -181.5t-30.5 -135.5zM573 795l-106 -437l-6 -41q0 -35 25.5 -60.5t82.5 -25.5q45 0 74 24t46.5 70t40 136t48.5 201l94 393q10 41 11 65q0 12 -5.5 28.5t-10.5 27 t-26.5 22.5t-58.5 12t-60.5 -9t-36.5 -27.5t-18 -34t-5 -17.5z" />
<glyph unicode="&#xd7;" horiz-adv-x="1366" d="M778 412l-372 -373l-185 186l373 371l-373 375l185 180l372 -371l375 371l184 -180l-372 -375l372 -371l-184 -186z" />
<glyph unicode="&#xd8;" horiz-adv-x="1110" d="M1251 1430l86 -82l-110 -121q4 -37 4 -56q0 -23 -6 -82t-57.5 -280t-135.5 -524q-35 -98 -66.5 -151.5t-89 -88.5t-127 -52.5t-176.5 -17.5q-119 0 -187.5 13.5t-104 33t-51 30.5t-44.5 36l-77 -80l-86 80l104 115q-2 18 -5 44.5t-3 49.5q0 43 6 84t33.5 168t50 221 t66.5 258t74 227.5t79 109.5t136 75.5t214 29.5q123 0 198 -15t114.5 -42t58 -42t27.5 -23zM897 1042l6 74q0 68 -39 89.5t-84 21.5q-43 0 -80.5 -24.5t-62.5 -84t-74 -241t-76 -283.5zM451 379q-4 -37 -5 -51q0 -10 6.5 -34t33 -47.5t79.5 -23.5q39 0 63.5 12.5t50.5 43 t50.5 105.5t61.5 206l61 227z" />
<glyph unicode="&#xd9;" horiz-adv-x="1110" d="M707 1446l-240 -1032q-4 -18 -7 -45t-3 -35q0 -37 23.5 -61.5t82.5 -24.5q31 0 45.5 5t36 21.5t34.5 49t28 90.5l239 1032h346l-237 -1032q-14 -51 -23.5 -85t-37 -111t-104.5 -140.5t-152.5 -77.5t-120 -19.5t-82.5 -5.5q-119 0 -199 27t-109.5 50.5t-53 47t-37 52 t-22 68.5t-8.5 75q0 88 33 235q4 27 19 70l198 846h351zM1026 1542h-250l-287 254h347z" />
<glyph unicode="&#xda;" horiz-adv-x="1110" d="M707 1446l-240 -1032q-4 -18 -7 -45t-3 -35q0 -37 23.5 -61.5t82.5 -24.5q31 0 45.5 5t36 21.5t34.5 49t28 90.5l239 1032h346l-237 -1032q-14 -51 -23.5 -85t-37 -111t-104.5 -140.5t-152.5 -77.5t-120 -19.5t-82.5 -5.5q-119 0 -199 27t-109.5 50.5t-53 47t-37 52 t-22 68.5t-8.5 75q0 88 33 235q4 27 19 70l198 846h351zM1217 1798l-281 -254h-250l191 254h340z" />
<glyph unicode="&#xdb;" horiz-adv-x="1110" d="M707 1446l-240 -1032q-4 -18 -7 -45t-3 -35q0 -37 23.5 -61.5t82.5 -24.5q31 0 45.5 5t36 21.5t34.5 49t28 90.5l239 1032h346l-237 -1032q-14 -51 -23.5 -85t-37 -111t-104.5 -140.5t-152.5 -77.5t-120 -19.5t-82.5 -5.5q-119 0 -199 27t-109.5 50.5t-53 47t-37 52 t-22 68.5t-8.5 75q0 88 33 235q4 27 19 70l198 846h351zM1180 1542h-217l-76 127l-135 -127h-250l270 256h262z" />
<glyph unicode="&#xdc;" horiz-adv-x="1110" d="M707 1446l-240 -1032q-4 -18 -7 -45t-3 -35q0 -37 23.5 -61.5t82.5 -24.5q31 0 45.5 5t36 21.5t34.5 49t28 90.5l239 1032h346l-237 -1032q-14 -51 -23.5 -85t-37 -111t-104.5 -140.5t-152.5 -77.5t-120 -19.5t-82.5 -5.5q-119 0 -199 27t-109.5 50.5t-53 47t-37 52 t-22 68.5t-8.5 75q0 88 33 235q4 27 19 70l198 846h351zM821 1794l-59 -256h-287l60 256h286zM1210 1538h-284l59 256h285z" />
<glyph unicode="&#xdf;" horiz-adv-x="1067" d="M459 178q16 -4 36.5 -6t41.5 -2q78 0 98 47t39 129l45 195q6 35 10 60.5t4 39.5q0 29 -21.5 55.5t-115.5 26.5l45 201h45q45 0 71.5 9t42 40t32 102.5t16.5 104.5q0 35 -15.5 49t-42 19t-42.5 5q-61 0 -85 -31.5t-38 -99.5l-260 -1122h-328l260 1124q25 104 50.5 157.5 t72.5 101t137 69t199 21.5q74 0 164 -13.5t140 -53.5t73.5 -79t23.5 -98q0 -45 -11 -105.5t-28.5 -123t-32 -90t-45 -57.5t-57.5 -39t-76 -17q14 -4 27.5 -8.5t50.5 -24t56.5 -63.5t19.5 -80q0 -37 -21.5 -137.5t-43 -183.5t-44 -136t-59.5 -92t-99.5 -61.5t-166.5 -22.5 q-45 0 -100.5 4t-108.5 8z" />
<glyph unicode="&#xe0;" horiz-adv-x="980" d="M518 0l29 115l-49 -43q-49 -39 -108.5 -70t-137.5 -31q-41 0 -89 12.5t-75 44t-39 63.5t-12 81l4 53q6 33 12 68q33 141 81 199.5t125 94.5t224 77l213 63l21 92q4 25 4 37q0 25 -17.5 39t-34 16t-32.5 4q-14 0 -31.5 -1t-47.5 -16t-64 -142l-312 2q23 96 38.5 143 t60.5 110.5t156.5 83t211.5 23.5q100 0 148.5 -8t93.5 -29.5t61.5 -32t36 -35t31.5 -56t12 -78.5q0 -35 -6 -63t-12 -60l-146 -633l-6 -53q0 -29 7.5 -43.5t21.5 -26.5h-373zM649 514q-106 -35 -139 -46t-55.5 -25.5t-38 -39t-29.5 -74.5t-14 -77q0 -33 21.5 -50.5 t54.5 -17.5q35 0 60.5 12.5t72.5 53.5zM889 1241h-250l-289 254h346z" />
<glyph unicode="&#xe1;" horiz-adv-x="980" d="M518 0l29 115l-49 -43q-49 -39 -108.5 -70t-137.5 -31q-41 0 -89 12.5t-75 44t-39 63.5t-12 81l4 53q6 33 12 68q33 141 81 199.5t125 94.5t224 77l213 63l21 92q4 25 4 37q0 25 -17.5 39t-34 16t-32.5 4q-14 0 -31.5 -1t-47.5 -16t-64 -142l-312 2q23 96 38.5 143 t60.5 110.5t156.5 83t211.5 23.5q100 0 148.5 -8t93.5 -29.5t61.5 -32t36 -35t31.5 -56t12 -78.5q0 -35 -6 -63t-12 -60l-146 -633l-6 -53q0 -29 7.5 -43.5t21.5 -26.5h-373zM649 514q-106 -35 -139 -46t-55.5 -25.5t-38 -39t-29.5 -74.5t-14 -77q0 -33 21.5 -50.5 t54.5 -17.5q35 0 60.5 12.5t72.5 53.5zM1077 1495l-282 -256h-250l192 256h340z" />
<glyph unicode="&#xe2;" horiz-adv-x="980" d="M518 0l29 115l-49 -43q-49 -39 -108.5 -70t-137.5 -31q-41 0 -89 12.5t-75 44t-39 63.5t-12 81l4 53q6 33 12 68q33 141 81 199.5t125 94.5t224 77l213 63l21 92q4 25 4 37q0 25 -17.5 39t-34 16t-32.5 4q-14 0 -31.5 -1t-47.5 -16t-64 -142l-312 2q23 96 38.5 143 t60.5 110.5t156.5 83t211.5 23.5q100 0 148.5 -8t93.5 -29.5t61.5 -32t36 -35t31.5 -56t12 -78.5q0 -35 -6 -63t-12 -60l-146 -633l-6 -53q0 -29 7.5 -43.5t21.5 -26.5h-373zM649 514q-106 -35 -139 -46t-55.5 -25.5t-38 -39t-29.5 -74.5t-14 -77q0 -33 21.5 -50.5 t54.5 -17.5q35 0 60.5 12.5t72.5 53.5zM1038 1239h-215l-75 127l-138 -127h-252l275 256h258z" />
<glyph unicode="&#xe3;" horiz-adv-x="980" d="M518 0l29 115l-49 -43q-49 -39 -108.5 -70t-137.5 -31q-41 0 -89 12.5t-75 44t-39 63.5t-12 81l4 53q6 33 12 68q33 141 81 199.5t125 94.5t224 77l213 63l21 92q4 25 4 37q0 25 -17.5 39t-34 16t-32.5 4q-14 0 -31.5 -1t-47.5 -16t-64 -142l-312 2q23 96 38.5 143 t60.5 110.5t156.5 83t211.5 23.5q100 0 148.5 -8t93.5 -29.5t61.5 -32t36 -35t31.5 -56t12 -78.5q0 -35 -6 -63t-12 -60l-146 -633l-6 -53q0 -29 7.5 -43.5t21.5 -26.5h-373zM649 514q-106 -35 -139 -46t-55.5 -25.5t-38 -39t-29.5 -74.5t-14 -77q0 -33 21.5 -50.5 t54.5 -17.5q35 0 60.5 12.5t72.5 53.5zM1075 1493q-10 -57 -16 -76.5t-19 -50.5q-23 -45 -66.5 -81t-121.5 -36q-39 0 -63.5 6.5t-71.5 24.5t-81 29.5t-56 11.5q-37 0 -54.5 -19.5t-27.5 -41.5h-92l6 47q16 63 31.5 98t53.5 56.5t63.5 29.5t60.5 8q27 0 59.5 -6t74.5 -22.5 t74.5 -26.5t63.5 -10q41 0 58.5 16t31.5 43h92z" />
<glyph unicode="&#xe4;" horiz-adv-x="980" d="M1126 1493l-59 -256h-287l60 256h286zM612 1237h-282l59 256h283zM518 0l29 115l-49 -43q-49 -39 -108.5 -70t-137.5 -31q-41 0 -89 12.5t-75 44t-39 63.5t-12 81l4 53q6 33 12 68q33 141 81 199.5t125 94.5t224 77l213 63l21 92q4 25 4 37q0 25 -17.5 39t-34 16t-32.5 4 q-14 0 -31.5 -1t-47.5 -16t-64 -142l-312 2q23 96 38.5 143t60.5 110.5t156.5 83t211.5 23.5q100 0 148.5 -8t93.5 -29.5t61.5 -32t36 -35t31.5 -56t12 -78.5q0 -35 -6 -63t-12 -60l-146 -633l-6 -53q0 -29 7.5 -43.5t21.5 -26.5h-373zM649 514q-106 -35 -139 -46 t-55.5 -25.5t-38 -39t-29.5 -74.5t-14 -77q0 -33 21.5 -50.5t54.5 -17.5q35 0 60.5 12.5t72.5 53.5z" />
<glyph unicode="&#xe5;" horiz-adv-x="980" d="M817 1546q59 -16 97 -60t38 -108q0 -16 -5 -41.5t-26.5 -58.5t-72.5 -54.5t-107 -21.5q-59 0 -102 19.5t-79 57.5t-36 101t46 119.5t149 56.5q18 0 39.5 -1t58.5 -9zM737 1282q41 0 70 26.5t29 69.5q0 41 -29 70t-70 29t-69.5 -29t-28.5 -70q0 -39 23.5 -62.5t41 -28.5 t33.5 -5zM518 0l29 115l-49 -43q-49 -39 -108.5 -70t-137.5 -31q-41 0 -89 12.5t-75 44t-39 63.5t-12 81l4 53q6 33 12 68q33 141 81 199.5t125 94.5t224 77l213 63l21 92q4 25 4 37q0 25 -17.5 39t-34 16t-32.5 4q-14 0 -31.5 -1t-47.5 -16t-64 -142l-312 2q23 96 38.5 143 t60.5 110.5t156.5 83t211.5 23.5q100 0 148.5 -8t93.5 -29.5t61.5 -32t36 -35t31.5 -56t12 -78.5q0 -35 -6 -63t-12 -60l-146 -633l-6 -53q0 -29 7.5 -43.5t21.5 -26.5h-373zM649 514q-106 -35 -139 -46t-55.5 -25.5t-38 -39t-29.5 -74.5t-14 -77q0 -33 21.5 -50.5 t54.5 -17.5q35 0 60.5 12.5t72.5 53.5z" />
<glyph unicode="&#xe6;" horiz-adv-x="1492" d="M950 485q-16 -70 -26.5 -125t-10.5 -81q0 -47 27 -63.5t57 -16.5q10 0 24.5 4t36 15t37 44t29.5 100h334l-33 -112q-31 -92 -84 -150.5t-115.5 -81t-117.5 -34t-127 -11.5q-82 0 -143.5 14.5t-94 38t-46 34t-23.5 24.5l-23 43q-10 -12 -21.5 -27.5t-44 -46t-113.5 -56.5 t-167 -26q-55 0 -160.5 28t-105.5 189q0 35 7 78t22.5 96.5t40 94.5t41 58t56.5 45t200 75l272 82q6 29 15 66.5t9 56.5q0 45 -28.5 60t-57.5 15q-14 0 -30.5 -2t-38 -20.5t-32.5 -50t-30 -94.5h-313l21 88q27 98 50 138t65 71.5t123 56t187 24.5q74 0 130.5 -15t85 -37.5 t39 -34t20.5 -27.5q47 59 124 85.5t165 26.5q162 0 256 -66.5t94 -203.5q0 -74 -24.5 -188.5t-39.5 -178.5zM1192 680q8 33 18.5 77t10.5 68q0 37 -21.5 58.5t-66.5 21.5q-37 0 -60.5 -18.5t-33 -35.5t-18.5 -55t-28 -116h199zM629 508l-90 -31l-56 -20q-37 -16 -61.5 -41 t-35.5 -63t-15 -56t-4 -41q0 -33 19.5 -54.5t55.5 -21.5q45 0 84 25q37 31 43 37z" />
<glyph unicode="&#xe7;" horiz-adv-x="980" d="M717 688q10 41 19 80t9 59l-4 27q-8 20 -25.5 32.5t-51.5 12.5q-35 0 -63 -13.5t-43 -46t-28 -81.5l-100 -439q-4 -20 -4 -38q0 -20 7 -40t27.5 -33t51.5 -13q29 0 49.5 9t35.5 30.5t24.5 51t23.5 95.5h330l-27 -107q-35 -125 -94 -183t-114.5 -78.5t-114 -31 t-117.5 -10.5q-66 0 -141.5 12.5t-132 50.5t-91 92t-34.5 140q0 84 55 312l47 192q31 119 56.5 164t79.5 95t139 71.5t192 21.5q61 0 122.5 -9t120 -42t98.5 -86t40 -143q0 -37 -6 -68t-21 -86h-315zM483 -115l66 -12q31 -10 56.5 -40t25.5 -85q0 -49 -29 -93t-81 -72.5 t-138 -28.5q-59 0 -100 15t-84 38v92q78 -31 120 -31q53 0 79 31t26 63q0 23 -13.5 41.5t-32 25.5t-40.5 7q-31 -4 -35 -4l-10 53l119 115h168z" />
<glyph unicode="&#xe8;" d="M463 471q-23 -104 -29 -139t-6 -62q2 -25 9 -38t34 -24t51 -11q66 0 87.5 37.5t39.5 119.5h332q-25 -104 -54.5 -171.5t-92 -117t-148.5 -72t-178 -22.5q-119 0 -213 33t-128 83t-45 85t-11 94q0 72 16 151t57 248t72 239.5t81 116.5t131 74.5t204 28.5h55.5t96 -13 t155.5 -65.5t80 -187.5q0 -41 -6 -78t-25 -118l-41 -191h-524zM719 672q10 45 19.5 87t9.5 62q0 41 -24 62.5t-71 21.5q-68 0 -93 -49t-52 -184h211zM911 1241h-252l-288 254h346z" />
<glyph unicode="&#xe9;" d="M463 471q-23 -104 -29 -139t-6 -62q2 -25 9 -38t34 -24t51 -11q66 0 87.5 37.5t39.5 119.5h332q-25 -104 -54.5 -171.5t-92 -117t-148.5 -72t-178 -22.5q-119 0 -213 33t-128 83t-45 85t-11 94q0 72 16 151t57 248t72 239.5t81 116.5t131 74.5t204 28.5h55.5t96 -13 t155.5 -65.5t80 -187.5q0 -41 -6 -78t-25 -118l-41 -191h-524zM719 672q10 45 19.5 87t9.5 62q0 41 -24 62.5t-71 21.5q-68 0 -93 -49t-52 -184h211zM1098 1495l-283 -256h-248l191 256h340z" />
<glyph unicode="&#xea;" d="M463 471q-23 -104 -29 -139t-6 -62q2 -25 9 -38t34 -24t51 -11q66 0 87.5 37.5t39.5 119.5h332q-25 -104 -54.5 -171.5t-92 -117t-148.5 -72t-178 -22.5q-119 0 -213 33t-128 83t-45 85t-11 94q0 72 16 151t57 248t72 239.5t81 116.5t131 74.5t204 28.5h55.5t96 -13 t155.5 -65.5t80 -187.5q0 -41 -6 -78t-25 -118l-41 -191h-524zM719 672q10 45 19.5 87t9.5 62q0 41 -24 62.5t-71 21.5q-68 0 -93 -49t-52 -184h211zM1059 1239h-215l-76 127l-137 -127h-250l272 256h258z" />
<glyph unicode="&#xeb;" d="M463 471q-23 -104 -29 -139t-6 -62q2 -25 9 -38t34 -24t51 -11q66 0 87.5 37.5t39.5 119.5h332q-25 -104 -54.5 -171.5t-92 -117t-148.5 -72t-178 -22.5q-119 0 -213 33t-128 83t-45 85t-11 94q0 72 16 151t57 248t72 239.5t81 116.5t131 74.5t204 28.5h55.5t96 -13 t155.5 -65.5t80 -187.5q0 -41 -6 -78t-25 -118l-41 -191h-524zM719 672q10 45 19.5 87t9.5 62q0 41 -24 62.5t-71 21.5q-68 0 -93 -49t-52 -184h211zM1155 1493l-57 -256h-289l59 256h287zM643 1237h-285l60 256h284z" />
<glyph unicode="&#xec;" horiz-adv-x="512" d="M618 1098l-253 -1098h-326l252 1098h327zM655 1241h-252l-288 254h346z" />
<glyph unicode="&#xed;" horiz-adv-x="512" d="M618 1098l-253 -1098h-326l252 1098h327zM842 1495l-283 -256h-248l191 256h340z" />
<glyph unicode="&#xee;" horiz-adv-x="512" d="M618 1098l-253 -1098h-326l252 1098h327zM803 1239h-215l-76 127l-137 -127h-250l272 256h258z" />
<glyph unicode="&#xef;" horiz-adv-x="512" d="M618 1098l-253 -1098h-326l252 1098h327zM899 1493l-57 -256h-289l59 256h287zM387 1237h-285l60 256h284z" />
<glyph unicode="&#xf1;" d="M555 0l178 772l4 53q0 31 -20.5 53.5t-54.5 22.5q-31 0 -57.5 -17.5t-43 -46t-22.5 -67.5l-179 -770h-319l252 1098h321l-24 -109l47 45q35 27 102.5 57.5t141.5 30.5t138 -40t64 -156q0 -31 -3 -56.5t-9 -52.5l-188 -817h-328zM1096 1493q-16 -90 -37 -131t-65 -77 t-122 -36q-39 0 -63.5 6.5t-71.5 24.5t-80.5 29.5t-56.5 11.5q-35 0 -50 -17.5t-32 -43.5h-90l6 47q8 45 27.5 89t56.5 65.5t62.5 29.5t62.5 8q27 0 59.5 -6t74.5 -22.5t75 -26.5t63 -10q41 0 57.5 15t31.5 44h92z" />
<glyph unicode="&#xf2;" d="M1016 993q20 -29 33.5 -77t13.5 -91q0 -41 -9.5 -94t-21.5 -106l-31 -152q-27 -119 -51 -197.5t-45.5 -118.5t-39 -58.5t-43 -43t-105.5 -52.5t-205 -28q-109 0 -179.5 19.5t-108.5 46.5t-54 44t-28.5 38.5t-21.5 58.5t-9 90q0 57 10 117q14 63 22 107l41 180 q29 123 60.5 207t81 132t101.5 71.5t100 30.5t59.5 8t52.5 1q150 0 242 -35t135 -98zM438 342q-10 -41 -10 -61q0 -43 25.5 -64.5t64.5 -21.5q35 0 64.5 21.5t56.5 125.5l100 440l6 45q0 37 -25.5 58.5t-64.5 21.5q-33 0 -54 -13t-33.5 -33.5t-28.5 -78.5zM911 1241h-252 l-288 254h346z" />
<glyph unicode="&#xf3;" d="M1016 993q20 -29 33.5 -77t13.5 -91q0 -41 -9.5 -94t-21.5 -106l-31 -152q-27 -119 -51 -197.5t-45.5 -118.5t-39 -58.5t-43 -43t-105.5 -52.5t-205 -28q-109 0 -179.5 19.5t-108.5 46.5t-54 44t-28.5 38.5t-21.5 58.5t-9 90q0 57 10 117q14 63 22 107l41 180 q29 123 60.5 207t81 132t101.5 71.5t100 30.5t59.5 8t52.5 1q150 0 242 -35t135 -98zM438 342q-10 -41 -10 -61q0 -43 25.5 -64.5t64.5 -21.5q35 0 64.5 21.5t56.5 125.5l100 440l6 45q0 37 -25.5 58.5t-64.5 21.5q-33 0 -54 -13t-33.5 -33.5t-28.5 -78.5zM1098 1495 l-283 -256h-248l191 256h340z" />
<glyph unicode="&#xf4;" d="M1016 993q20 -29 33.5 -77t13.5 -91q0 -41 -9.5 -94t-21.5 -106l-31 -152q-27 -119 -51 -197.5t-45.5 -118.5t-39 -58.5t-43 -43t-105.5 -52.5t-205 -28q-109 0 -179.5 19.5t-108.5 46.5t-54 44t-28.5 38.5t-21.5 58.5t-9 90q0 57 10 117q14 63 22 107l41 180 q29 123 60.5 207t81 132t101.5 71.5t100 30.5t59.5 8t52.5 1q150 0 242 -35t135 -98zM438 342q-10 -41 -10 -61q0 -43 25.5 -64.5t64.5 -21.5q35 0 64.5 21.5t56.5 125.5l100 440l6 45q0 37 -25.5 58.5t-64.5 21.5q-33 0 -54 -13t-33.5 -33.5t-28.5 -78.5zM1059 1239h-215 l-76 127l-137 -127h-250l272 256h258z" />
<glyph unicode="&#xf5;" d="M1016 993q20 -29 33.5 -77t13.5 -91q0 -41 -9.5 -94t-21.5 -106l-31 -152q-27 -119 -51 -197.5t-45.5 -118.5t-39 -58.5t-43 -43t-105.5 -52.5t-205 -28q-109 0 -179.5 19.5t-108.5 46.5t-54 44t-28.5 38.5t-21.5 58.5t-9 90q0 57 10 117q14 63 22 107l41 180 q29 123 60.5 207t81 132t101.5 71.5t100 30.5t59.5 8t52.5 1q150 0 242 -35t135 -98zM438 342q-10 -41 -10 -61q0 -43 25.5 -64.5t64.5 -21.5q35 0 64.5 21.5t56.5 125.5l100 440l6 45q0 37 -25.5 58.5t-64.5 21.5q-33 0 -54 -13t-33.5 -33.5t-28.5 -78.5zM1096 1493 q-16 -90 -37 -131t-65 -77t-122 -36q-39 0 -63.5 6.5t-71.5 24.5t-80.5 29.5t-56.5 11.5q-35 0 -50 -17.5t-32 -43.5h-90l6 47q8 45 27.5 89t56.5 65.5t62.5 29.5t62.5 8q27 0 59.5 -6t74.5 -22.5t75 -26.5t63 -10q41 0 57.5 15t31.5 44h92z" />
<glyph unicode="&#xf6;" d="M1159 1493l-59 -256h-287l59 256h287zM645 1237h-283l60 256h283zM1016 993q20 -29 33.5 -77t13.5 -91q0 -41 -9.5 -94t-21.5 -106l-31 -152q-27 -119 -51 -197.5t-45.5 -118.5t-39 -58.5t-43 -43t-105.5 -52.5t-205 -28q-109 0 -179.5 19.5t-108.5 46.5t-54 44 t-28.5 38.5t-21.5 58.5t-9 90q0 57 10 117q14 63 22 107l41 180q29 123 60.5 207t81 132t101.5 71.5t100 30.5t59.5 8t52.5 1q150 0 242 -35t135 -98zM438 342q-10 -41 -10 -61q0 -43 25.5 -64.5t64.5 -21.5q35 0 64.5 21.5t56.5 125.5l100 440l6 45q0 37 -25.5 58.5 t-64.5 21.5q-33 0 -54 -13t-33.5 -33.5t-28.5 -78.5z" />
<glyph unicode="&#xf7;" horiz-adv-x="1366" d="M778 63q-70 0 -117 45.5t-47 116.5q0 68 47.5 117t116.5 49q70 0 118 -48t48 -118t-48 -116t-118 -46zM778 797q-68 0 -116 46t-48 118q0 37 15.5 74.5t57.5 64t93 26.5q68 0 116 -48t48 -120q0 -70 -48 -115.5t-118 -45.5zM96 465v260h1366v-260h-1366z" />
<glyph unicode="&#xf8;" d="M1100 1106l-88 -105q27 -35 40 -67.5t13 -97.5q0 -18 -2 -44t-9 -76t-46 -213t-60.5 -227.5t-53.5 -129t-97.5 -105.5t-136 -54.5t-150.5 -13.5q-82 0 -144.5 13.5t-92 26t-46 22.5t-24.5 16l-84 -96l-74 63l90 109q-12 25 -21.5 58.5t-9.5 82.5q0 104 58 322l41 155 q23 94 58.5 168t85.5 119t119 68.5t181 23.5q63 0 126 -9t114 -28l49 -24l88 104zM760 860l-10 21q-12 20 -36 29.5t-52 9.5q-33 0 -63 -19.5t-45 -46.5t-32 -74l-102 -327zM393 272v-18q6 -14 15.5 -33.5t39 -31t54.5 -11.5q43 0 74.5 22.5t55 78t61.5 188.5t65 238z" />
<glyph unicode="&#xf9;" d="M453 381q-18 -78 -19 -105q0 -45 25.5 -62t52.5 -17q33 0 57.5 19.5t40 53t31.5 103.5l168 725h330l-254 -1098h-330l27 113q-74 -74 -137.5 -103.5t-143.5 -29.5q-78 0 -145.5 38.5t-67.5 159.5q0 31 2 50.5t12 72.5l185 797h329zM911 1241h-252l-288 254h346z" />
<glyph unicode="&#xfa;" d="M453 381q-18 -78 -19 -105q0 -45 25.5 -62t52.5 -17q33 0 57.5 19.5t40 53t31.5 103.5l168 725h330l-254 -1098h-330l27 113q-74 -74 -137.5 -103.5t-143.5 -29.5q-78 0 -145.5 38.5t-67.5 159.5q0 31 2 50.5t12 72.5l185 797h329zM1098 1495l-283 -256h-248l191 256h340 z" />
<glyph unicode="&#xfb;" d="M453 381q-18 -78 -19 -105q0 -45 25.5 -62t52.5 -17q33 0 57.5 19.5t40 53t31.5 103.5l168 725h330l-254 -1098h-330l27 113q-74 -74 -137.5 -103.5t-143.5 -29.5q-78 0 -145.5 38.5t-67.5 159.5q0 31 2 50.5t12 72.5l185 797h329zM1059 1239h-215l-76 127l-137 -127 h-250l272 256h258z" />
<glyph unicode="&#xfc;" d="M1174 1493l-60 -256h-287l60 256h287zM659 1237h-282l59 256h283zM453 381q-18 -78 -19 -105q0 -45 25.5 -62t52.5 -17q33 0 57.5 19.5t40 53t31.5 103.5l168 725h330l-254 -1098h-330l27 113q-74 -74 -137.5 -103.5t-143.5 -29.5q-78 0 -145.5 38.5t-67.5 159.5 q0 31 2 50.5t12 72.5l185 797h329z" />
<glyph unicode="&#xff;" horiz-adv-x="894" d="M430 133q18 88 22.5 103.5t36.5 109.5l256 752h355l-445 -1016q-29 -61 -48 -103t-70.5 -136.5t-108.5 -145.5t-127 -70.5t-144.5 -22.5t-275.5 -3l45 241h125q63 6 84 30t24 47.5t3 68.5l33 1110h325zM1092 1493l-60 -256h-287l60 256h287zM580 1237h-285l59 256h283z " />
<glyph unicode="&#x152;" horiz-adv-x="1449" d="M952 1446h719l-57 -248h-367l-78 -332h347l-60 -252h-344l-84 -362h397l-57 -252h-750l21 88q-12 -14 -24.5 -27.5t-42 -36t-79 -36t-106.5 -13.5q-141 0 -211 64.5t-70 206.5q0 49 10.5 110.5t26.5 141.5l31 139q20 88 29.5 127t52.5 204t65.5 230.5t55.5 126.5 t97.5 104.5t193.5 43.5q82 0 133 -16.5t90 -43.5l45 -39zM856 1024q6 25 12 61.5t6 61.5q0 43 -25.5 66.5t-74.5 23.5q-35 0 -64.5 -15.5t-53 -73.5t-76 -279.5t-74 -323t-33.5 -162.5t-12 -90q0 -43 27.5 -64.5t70.5 -21.5q41 0 74 22.5t47 60.5t42 153.5t28 117.5z" />
<glyph unicode="&#x153;" horiz-adv-x="1536" d="M1001 483q-27 -117 -33.5 -151.5t-6.5 -59.5q0 -33 23.5 -52t57.5 -19q6 0 17.5 1t34.5 7q53 20 80 147h333q-16 -66 -27.5 -96.5t-43 -98t-120.5 -127t-265 -59.5q-47 0 -115 7.5t-129 70.5l-31 41l-22.5 -22.5t-46 -38t-101 -43t-149.5 -19.5q-96 0 -182.5 34t-116 85 t-38.5 84t-9 90q0 63 18 156.5t56 251t62.5 223.5t72 116t129 83.5t206.5 33.5q72 0 128.5 -15t91 -42t57.5 -59l47 41q41 29 109.5 50t160.5 21q86 0 158 -21.5t108.5 -60t56 -79.5t19.5 -103q0 -37 -12 -102.5t-61 -274.5h-517zM1247 678q16 66 22.5 97.5t6.5 53.5 q0 41 -22.5 59.5t-61.5 18.5q-47 0 -74.5 -25.5t-41 -66.5t-32.5 -137h203zM434 342q-2 -6 -5 -28.5t-3 -34.5q0 -80 86 -80q29 0 57.5 15t38.5 34.5t21 62.5l100 437q6 23 10 45t4 36l-4 31q-10 29 -35.5 37t-46.5 8q-72 0 -94 -53t-35 -104z" />
<glyph unicode="&#x178;" horiz-adv-x="1067" d="M1341 1446l-602 -975l-108 -471h-346l114 500l-135 946h342l49 -590l295 590h391zM1241 1794l-59 -256h-287l59 256h287zM727 1538h-285l60 256h284z" />
<glyph unicode="&#x2000;" horiz-adv-x="917" />
<glyph unicode="&#x2001;" horiz-adv-x="1835" />
<glyph unicode="&#x2002;" horiz-adv-x="917" />
<glyph unicode="&#x2003;" horiz-adv-x="1835" />
<glyph unicode="&#x2004;" horiz-adv-x="611" />
<glyph unicode="&#x2005;" horiz-adv-x="458" />
<glyph unicode="&#x2006;" horiz-adv-x="305" />
<glyph unicode="&#x2007;" horiz-adv-x="305" />
<glyph unicode="&#x2008;" horiz-adv-x="229" />
<glyph unicode="&#x2009;" horiz-adv-x="367" />
<glyph unicode="&#x200a;" horiz-adv-x="101" />
<glyph unicode="&#x2010;" horiz-adv-x="681" d="M750 840l-54 -236h-553l54 236h553z" />
<glyph unicode="&#x2011;" horiz-adv-x="681" d="M750 840l-54 -236h-553l54 236h553z" />
<glyph unicode="&#x2012;" horiz-adv-x="681" d="M750 840l-54 -236h-553l54 236h553z" />
<glyph unicode="&#x2013;" horiz-adv-x="1067" d="M1130 840l-53 -236h-927l53 236h927z" />
<glyph unicode="&#x2014;" horiz-adv-x="1366" d="M96 465v260h1366v-260h-1366z" />
<glyph unicode="&#x2018;" horiz-adv-x="512" d="M496 1133h114l-73 -316h-308l74 316l248 313h131z" />
<glyph unicode="&#x2019;" horiz-adv-x="512" d="M690 1446l-72 -311l-249 -320h-133l186 320h-113l72 311h309z" />
<glyph unicode="&#x201a;" horiz-adv-x="512" d="M420 311l-74 -311l-250 -319h-131l187 319h-113l72 311h309z" />
<glyph unicode="&#x201c;" horiz-adv-x="894" d="M1085 1446l-186 -320h113l-72 -309h-305l70 309l245 320h135zM672 1446l-183 -320h109l-72 -309h-305l72 309l237 320h142z" />
<glyph unicode="&#x201d;" horiz-adv-x="894" d="M1022 1137l-238 -318h-141l184 318h-110l71 309h306zM682 1446l-72 -309l-245 -318h-136l187 318h-113l72 309h307z" />
<glyph unicode="&#x201e;" horiz-adv-x="894" d="M399 313l-73 -313l-242 -315h-137l186 315h-113l72 313h307zM811 313l-72 -313l-237 -315h-140l181 315h-109l74 313h303z" />
<glyph unicode="&#x2022;" horiz-adv-x="681" d="M729 588q-37 -90 -111.5 -137.5t-173.5 -47.5q-45 0 -79.5 8.5t-88 33t-104.5 105.5t-51 173q0 133 94 225t227 92q43 0 76 -8t79 -29.5t102.5 -92t56.5 -189.5q0 -27 -5.5 -61.5t-21.5 -71.5z" />
<glyph unicode="&#x2026;" horiz-adv-x="2048" d="M1804 -12q-31 0 -70.5 15t-66.5 56t-27 93q0 68 48.5 115.5t117.5 47.5q66 0 113 -47t47 -114q0 -70 -46 -118t-116 -48zM1122 -12q-29 0 -96.5 23.5t-67.5 140.5q0 25 3.5 40t17.5 43.5t54 54t89 25.5q68 0 115 -47t47 -114q0 -70 -46 -118t-116 -48zM440 -12 q-33 0 -57.5 10t-66.5 43t-42 111q0 68 48.5 115.5t117.5 47.5q66 0 113 -47t47 -114q0 -70 -46 -118t-114 -48z" />
<glyph unicode="&#x202f;" horiz-adv-x="367" />
<glyph unicode="&#x205f;" horiz-adv-x="458" />
<glyph unicode="&#x2122;" horiz-adv-x="1409" d="M1311 766l6 362l12 138l-29 -109l-114 -391h-154l-121 393l-14 45l-14 60q6 -45 10 -79t4 -57l10 -362h-168v680h217l156 -490l148 490h217v-680h-166zM307 766v543h-211v137h588v-137h-205v-543h-172z" />
<glyph unicode="&#x25fc;" horiz-adv-x="1095" d="M0 1096h1096v-1096h-1096v1096z" />
</font>
</defs>
</svg>
